<svg width="165" height="315" viewBox="0 0 165 315" fill="none" xmlns="http://www.w3.org/2000/svg">
<circle cx="22.5" cy="2.5" r="2.5" fill="#F7941D" fill-opacity="0.5"/>
<circle cx="22.5" cy="22.5" r="2.5" fill="#F7941D" fill-opacity="0.5"/>
<circle cx="22.5" cy="42.5" r="2.5" fill="#F7941D" fill-opacity="0.5"/>
<circle cx="22.5" cy="62.5" r="2.5" fill="#F7941D" fill-opacity="0.5"/>
<circle cx="22.5" cy="82.5" r="2.5" fill="#F7941D" fill-opacity="0.5"/>
<circle cx="22.5" cy="102.5" r="2.5" fill="#F7941D" fill-opacity="0.5"/>
<circle cx="22.5" cy="122.5" r="2.5" fill="#F7941D" fill-opacity="0.5"/>
<circle cx="22.5" cy="142.5" r="2.5" fill="#F7941D" fill-opacity="0.5"/>
<circle cx="22.5" cy="12.5" r="2.5" fill="#F7941D" fill-opacity="0.5"/>
<circle cx="22.5" cy="32.5" r="2.5" fill="#F7941D" fill-opacity="0.5"/>
<circle cx="22.5" cy="52.5" r="2.5" fill="#F7941D" fill-opacity="0.5"/>
<circle cx="22.5" cy="72.5" r="2.5" fill="#F7941D" fill-opacity="0.5"/>
<circle cx="22.5" cy="92.5" r="2.5" fill="#F7941D" fill-opacity="0.5"/>
<circle cx="22.5" cy="112.5" r="2.5" fill="#F7941D" fill-opacity="0.5"/>
<circle cx="22.5" cy="132.5" r="2.5" fill="#F7941D" fill-opacity="0.5"/>
<circle cx="22.5" cy="152.5" r="2.5" fill="#F7941D" fill-opacity="0.5"/>
<circle cx="2.5" cy="2.5" r="2.5" fill="#F7941D" fill-opacity="0.5"/>
<circle cx="2.5" cy="22.5" r="2.5" fill="#F7941D" fill-opacity="0.5"/>
<circle cx="2.5" cy="42.5" r="2.5" fill="#F7941D" fill-opacity="0.5"/>
<circle cx="2.5" cy="62.5" r="2.5" fill="#F7941D" fill-opacity="0.5"/>
<circle cx="2.5" cy="82.5" r="2.5" fill="#F7941D" fill-opacity="0.5"/>
<circle cx="2.5" cy="102.5" r="2.5" fill="#F7941D" fill-opacity="0.5"/>
<circle cx="2.5" cy="122.5" r="2.5" fill="#F7941D" fill-opacity="0.5"/>
<circle cx="2.5" cy="142.5" r="2.5" fill="#F7941D" fill-opacity="0.5"/>
<circle cx="2.5" cy="12.5" r="2.5" fill="#F7941D" fill-opacity="0.5"/>
<circle cx="2.5" cy="32.5" r="2.5" fill="#F7941D" fill-opacity="0.5"/>
<circle cx="2.5" cy="52.5" r="2.5" fill="#F7941D" fill-opacity="0.5"/>
<circle cx="2.5" cy="72.5" r="2.5" fill="#F7941D" fill-opacity="0.5"/>
<circle cx="2.5" cy="92.5" r="2.5" fill="#F7941D" fill-opacity="0.5"/>
<circle cx="2.5" cy="112.5" r="2.5" fill="#F7941D" fill-opacity="0.5"/>
<circle cx="2.5" cy="132.5" r="2.5" fill="#F7941D" fill-opacity="0.5"/>
<circle cx="2.5" cy="152.5" r="2.5" fill="#F7941D" fill-opacity="0.5"/>
<circle cx="52.5" cy="2.5" r="2.5" fill="#F7941D" fill-opacity="0.5"/>
<circle cx="52.5" cy="22.5" r="2.5" fill="#F7941D" fill-opacity="0.5"/>
<circle cx="52.5" cy="42.5" r="2.5" fill="#F7941D" fill-opacity="0.5"/>
<circle cx="52.5" cy="62.5" r="2.5" fill="#F7941D" fill-opacity="0.5"/>
<circle cx="52.5" cy="82.5" r="2.5" fill="#F7941D" fill-opacity="0.5"/>
<circle cx="52.5" cy="102.5" r="2.5" fill="#F7941D" fill-opacity="0.5"/>
<circle cx="52.5" cy="122.5" r="2.5" fill="#F7941D" fill-opacity="0.5"/>
<circle cx="52.5" cy="142.5" r="2.5" fill="#F7941D" fill-opacity="0.5"/>
<circle cx="52.5" cy="12.5" r="2.5" fill="#F7941D" fill-opacity="0.5"/>
<circle cx="52.5" cy="32.5" r="2.5" fill="#F7941D" fill-opacity="0.5"/>
<circle cx="52.5" cy="52.5" r="2.5" fill="#F7941D" fill-opacity="0.5"/>
<circle cx="52.5" cy="72.5" r="2.5" fill="#F7941D" fill-opacity="0.5"/>
<circle cx="52.5" cy="92.5" r="2.5" fill="#F7941D" fill-opacity="0.5"/>
<circle cx="52.5" cy="112.5" r="2.5" fill="#F7941D" fill-opacity="0.5"/>
<circle cx="52.5" cy="132.5" r="2.5" fill="#F7941D" fill-opacity="0.5"/>
<circle cx="52.5" cy="152.5" r="2.5" fill="#F7941D" fill-opacity="0.5"/>
<circle cx="32.5" cy="2.5" r="2.5" fill="#F7941D" fill-opacity="0.5"/>
<circle cx="32.5" cy="22.5" r="2.5" fill="#F7941D" fill-opacity="0.5"/>
<circle cx="32.5" cy="42.5" r="2.5" fill="#F7941D" fill-opacity="0.5"/>
<circle cx="32.5" cy="62.5" r="2.5" fill="#F7941D" fill-opacity="0.5"/>
<circle cx="32.5" cy="82.5" r="2.5" fill="#F7941D" fill-opacity="0.5"/>
<circle cx="32.5" cy="102.5" r="2.5" fill="#F7941D" fill-opacity="0.5"/>
<circle cx="32.5" cy="122.5" r="2.5" fill="#F7941D" fill-opacity="0.5"/>
<circle cx="32.5" cy="142.5" r="2.5" fill="#F7941D" fill-opacity="0.5"/>
<circle cx="32.5" cy="12.5" r="2.5" fill="#F7941D" fill-opacity="0.5"/>
<circle cx="32.5" cy="32.5" r="2.5" fill="#F7941D" fill-opacity="0.5"/>
<circle cx="32.5" cy="52.5" r="2.5" fill="#F7941D" fill-opacity="0.5"/>
<circle cx="32.5" cy="72.5" r="2.5" fill="#F7941D" fill-opacity="0.5"/>
<circle cx="32.5" cy="92.5" r="2.5" fill="#F7941D" fill-opacity="0.5"/>
<circle cx="32.5" cy="112.5" r="2.5" fill="#F7941D" fill-opacity="0.5"/>
<circle cx="32.5" cy="132.5" r="2.5" fill="#F7941D" fill-opacity="0.5"/>
<circle cx="32.5" cy="152.5" r="2.5" fill="#F7941D" fill-opacity="0.5"/>
<circle cx="12.5" cy="2.5" r="2.5" fill="#F7941D" fill-opacity="0.5"/>
<circle cx="12.5" cy="22.5" r="2.5" fill="#F7941D" fill-opacity="0.5"/>
<circle cx="12.5" cy="42.5" r="2.5" fill="#F7941D" fill-opacity="0.5"/>
<circle cx="12.5" cy="62.5" r="2.5" fill="#F7941D" fill-opacity="0.5"/>
<circle cx="12.5" cy="82.5" r="2.5" fill="#F7941D" fill-opacity="0.5"/>
<circle cx="12.5" cy="102.5" r="2.5" fill="#F7941D" fill-opacity="0.5"/>
<circle cx="12.5" cy="122.5" r="2.5" fill="#F7941D" fill-opacity="0.5"/>
<circle cx="12.5" cy="142.5" r="2.5" fill="#F7941D" fill-opacity="0.5"/>
<circle cx="12.5" cy="12.5" r="2.5" fill="#F7941D" fill-opacity="0.5"/>
<circle cx="12.5" cy="32.5" r="2.5" fill="#F7941D" fill-opacity="0.5"/>
<circle cx="12.5" cy="52.5" r="2.5" fill="#F7941D" fill-opacity="0.5"/>
<circle cx="12.5" cy="72.5" r="2.5" fill="#F7941D" fill-opacity="0.5"/>
<circle cx="12.5" cy="92.5" r="2.5" fill="#F7941D" fill-opacity="0.5"/>
<circle cx="12.5" cy="112.5" r="2.5" fill="#F7941D" fill-opacity="0.5"/>
<circle cx="12.5" cy="132.5" r="2.5" fill="#F7941D" fill-opacity="0.5"/>
<circle cx="12.5" cy="152.5" r="2.5" fill="#F7941D" fill-opacity="0.5"/>
<circle cx="62.5" cy="2.5" r="2.5" fill="#F7941D" fill-opacity="0.5"/>
<circle cx="62.5" cy="22.5" r="2.5" fill="#F7941D" fill-opacity="0.5"/>
<circle cx="62.5" cy="42.5" r="2.5" fill="#F7941D" fill-opacity="0.5"/>
<circle cx="62.5" cy="62.5" r="2.5" fill="#F7941D" fill-opacity="0.5"/>
<circle cx="62.5" cy="82.5" r="2.5" fill="#F7941D" fill-opacity="0.5"/>
<circle cx="62.5" cy="102.5" r="2.5" fill="#F7941D" fill-opacity="0.5"/>
<circle cx="62.5" cy="122.5" r="2.5" fill="#F7941D" fill-opacity="0.5"/>
<circle cx="62.5" cy="142.5" r="2.5" fill="#F7941D" fill-opacity="0.5"/>
<circle cx="62.5" cy="12.5" r="2.5" fill="#F7941D" fill-opacity="0.5"/>
<circle cx="62.5" cy="32.5" r="2.5" fill="#F7941D" fill-opacity="0.5"/>
<circle cx="62.5" cy="52.5" r="2.5" fill="#F7941D" fill-opacity="0.5"/>
<circle cx="62.5" cy="72.5" r="2.5" fill="#F7941D" fill-opacity="0.5"/>
<circle cx="62.5" cy="92.5" r="2.5" fill="#F7941D" fill-opacity="0.5"/>
<circle cx="62.5" cy="112.5" r="2.5" fill="#F7941D" fill-opacity="0.5"/>
<circle cx="62.5" cy="132.5" r="2.5" fill="#F7941D" fill-opacity="0.5"/>
<circle cx="62.5" cy="152.5" r="2.5" fill="#F7941D" fill-opacity="0.5"/>
<circle cx="42.5" cy="2.5" r="2.5" fill="#F7941D" fill-opacity="0.5"/>
<circle cx="42.5" cy="22.5" r="2.5" fill="#F7941D" fill-opacity="0.5"/>
<circle cx="42.5" cy="42.5" r="2.5" fill="#F7941D" fill-opacity="0.5"/>
<circle cx="42.5" cy="62.5" r="2.5" fill="#F7941D" fill-opacity="0.5"/>
<circle cx="42.5" cy="82.5" r="2.5" fill="#F7941D" fill-opacity="0.5"/>
<circle cx="42.5" cy="102.5" r="2.5" fill="#F7941D" fill-opacity="0.5"/>
<circle cx="42.5" cy="122.5" r="2.5" fill="#F7941D" fill-opacity="0.5"/>
<circle cx="42.5" cy="142.5" r="2.5" fill="#F7941D" fill-opacity="0.5"/>
<circle cx="42.5" cy="12.5" r="2.5" fill="#F7941D" fill-opacity="0.5"/>
<circle cx="42.5" cy="32.5" r="2.5" fill="#F7941D" fill-opacity="0.5"/>
<circle cx="42.5" cy="52.5" r="2.5" fill="#F7941D" fill-opacity="0.5"/>
<circle cx="42.5" cy="72.5" r="2.5" fill="#F7941D" fill-opacity="0.5"/>
<circle cx="42.5" cy="92.5" r="2.5" fill="#F7941D" fill-opacity="0.5"/>
<circle cx="42.5" cy="112.5" r="2.5" fill="#F7941D" fill-opacity="0.5"/>
<circle cx="42.5" cy="132.5" r="2.5" fill="#F7941D" fill-opacity="0.5"/>
<circle cx="42.5" cy="152.5" r="2.5" fill="#F7941D" fill-opacity="0.5"/>
<circle cx="72.5" cy="2.5" r="2.5" fill="#F7941D" fill-opacity="0.5"/>
<circle cx="72.5" cy="22.5" r="2.5" fill="#F7941D" fill-opacity="0.5"/>
<circle cx="72.5" cy="42.5" r="2.5" fill="#F7941D" fill-opacity="0.5"/>
<circle cx="72.5" cy="62.5" r="2.5" fill="#F7941D" fill-opacity="0.5"/>
<circle cx="72.5" cy="82.5" r="2.5" fill="#F7941D" fill-opacity="0.5"/>
<circle cx="72.5" cy="102.5" r="2.5" fill="#F7941D" fill-opacity="0.5"/>
<circle cx="72.5" cy="122.5" r="2.5" fill="#F7941D" fill-opacity="0.5"/>
<circle cx="72.5" cy="142.5" r="2.5" fill="#F7941D" fill-opacity="0.5"/>
<circle cx="72.5" cy="12.5" r="2.5" fill="#F7941D" fill-opacity="0.5"/>
<circle cx="72.5" cy="32.5" r="2.5" fill="#F7941D" fill-opacity="0.5"/>
<circle cx="72.5" cy="52.5" r="2.5" fill="#F7941D" fill-opacity="0.5"/>
<circle cx="72.5" cy="72.5" r="2.5" fill="#F7941D" fill-opacity="0.5"/>
<circle cx="72.5" cy="92.5" r="2.5" fill="#F7941D" fill-opacity="0.5"/>
<circle cx="72.5" cy="112.5" r="2.5" fill="#F7941D" fill-opacity="0.5"/>
<circle cx="72.5" cy="132.5" r="2.5" fill="#F7941D" fill-opacity="0.5"/>
<circle cx="72.5" cy="152.5" r="2.5" fill="#F7941D" fill-opacity="0.5"/>
<circle cx="122.5" cy="2.5" r="2.5" fill="#F7941D" fill-opacity="0.5"/>
<circle cx="122.5" cy="22.5" r="2.5" fill="#F7941D" fill-opacity="0.5"/>
<circle cx="122.5" cy="42.5" r="2.5" fill="#F7941D" fill-opacity="0.5"/>
<circle cx="122.5" cy="62.5" r="2.5" fill="#F7941D" fill-opacity="0.5"/>
<circle cx="122.5" cy="82.5" r="2.5" fill="#F7941D" fill-opacity="0.5"/>
<circle cx="122.5" cy="102.5" r="2.5" fill="#F7941D" fill-opacity="0.5"/>
<circle cx="122.5" cy="122.5" r="2.5" fill="#F7941D" fill-opacity="0.5"/>
<circle cx="122.5" cy="142.5" r="2.5" fill="#F7941D" fill-opacity="0.5"/>
<circle cx="122.5" cy="12.5" r="2.5" fill="#F7941D" fill-opacity="0.5"/>
<circle cx="122.5" cy="32.5" r="2.5" fill="#F7941D" fill-opacity="0.5"/>
<circle cx="122.5" cy="52.5" r="2.5" fill="#F7941D" fill-opacity="0.5"/>
<circle cx="122.5" cy="72.5" r="2.5" fill="#F7941D" fill-opacity="0.5"/>
<circle cx="122.5" cy="92.5" r="2.5" fill="#F7941D" fill-opacity="0.5"/>
<circle cx="122.5" cy="112.5" r="2.5" fill="#F7941D" fill-opacity="0.5"/>
<circle cx="122.5" cy="132.5" r="2.5" fill="#F7941D" fill-opacity="0.5"/>
<circle cx="122.5" cy="152.5" r="2.5" fill="#F7941D" fill-opacity="0.5"/>
<circle cx="152.5" cy="2.5" r="2.5" fill="#F7941D" fill-opacity="0.5"/>
<circle cx="152.5" cy="22.5" r="2.5" fill="#F7941D" fill-opacity="0.5"/>
<circle cx="152.5" cy="42.5" r="2.5" fill="#F7941D" fill-opacity="0.5"/>
<circle cx="152.5" cy="62.5" r="2.5" fill="#F7941D" fill-opacity="0.5"/>
<circle cx="152.5" cy="82.5" r="2.5" fill="#F7941D" fill-opacity="0.5"/>
<circle cx="152.5" cy="102.5" r="2.5" fill="#F7941D" fill-opacity="0.5"/>
<circle cx="152.5" cy="122.5" r="2.5" fill="#F7941D" fill-opacity="0.5"/>
<circle cx="152.5" cy="142.5" r="2.5" fill="#F7941D" fill-opacity="0.5"/>
<circle cx="152.5" cy="12.5" r="2.5" fill="#F7941D" fill-opacity="0.5"/>
<circle cx="152.5" cy="32.5" r="2.5" fill="#F7941D" fill-opacity="0.5"/>
<circle cx="152.5" cy="52.5" r="2.5" fill="#F7941D" fill-opacity="0.5"/>
<circle cx="152.5" cy="72.5" r="2.5" fill="#F7941D" fill-opacity="0.5"/>
<circle cx="152.5" cy="92.5" r="2.5" fill="#F7941D" fill-opacity="0.5"/>
<circle cx="152.5" cy="112.5" r="2.5" fill="#F7941D" fill-opacity="0.5"/>
<circle cx="152.5" cy="132.5" r="2.5" fill="#F7941D" fill-opacity="0.5"/>
<circle cx="152.5" cy="152.5" r="2.5" fill="#F7941D" fill-opacity="0.5"/>
<circle cx="102.5" cy="2.5" r="2.5" fill="#F7941D" fill-opacity="0.5"/>
<circle cx="102.5" cy="22.5" r="2.5" fill="#F7941D" fill-opacity="0.5"/>
<circle cx="102.5" cy="42.5" r="2.5" fill="#F7941D" fill-opacity="0.5"/>
<circle cx="102.5" cy="62.5" r="2.5" fill="#F7941D" fill-opacity="0.5"/>
<circle cx="102.5" cy="82.5" r="2.5" fill="#F7941D" fill-opacity="0.5"/>
<circle cx="102.5" cy="102.5" r="2.5" fill="#F7941D" fill-opacity="0.5"/>
<circle cx="102.5" cy="122.5" r="2.5" fill="#F7941D" fill-opacity="0.5"/>
<circle cx="102.5" cy="142.5" r="2.5" fill="#F7941D" fill-opacity="0.5"/>
<circle cx="102.5" cy="12.5" r="2.5" fill="#F7941D" fill-opacity="0.5"/>
<circle cx="102.5" cy="32.5" r="2.5" fill="#F7941D" fill-opacity="0.5"/>
<circle cx="102.5" cy="52.5" r="2.5" fill="#F7941D" fill-opacity="0.5"/>
<circle cx="102.5" cy="72.5" r="2.5" fill="#F7941D" fill-opacity="0.5"/>
<circle cx="102.5" cy="92.5" r="2.5" fill="#F7941D" fill-opacity="0.5"/>
<circle cx="102.5" cy="112.5" r="2.5" fill="#F7941D" fill-opacity="0.5"/>
<circle cx="102.5" cy="132.5" r="2.5" fill="#F7941D" fill-opacity="0.5"/>
<circle cx="102.5" cy="152.5" r="2.5" fill="#F7941D" fill-opacity="0.5"/>
<circle cx="82.5" cy="2.5" r="2.5" fill="#F7941D" fill-opacity="0.5"/>
<circle cx="82.5" cy="22.5" r="2.5" fill="#F7941D" fill-opacity="0.5"/>
<circle cx="82.5" cy="42.5" r="2.5" fill="#F7941D" fill-opacity="0.5"/>
<circle cx="82.5" cy="62.5" r="2.5" fill="#F7941D" fill-opacity="0.5"/>
<circle cx="82.5" cy="82.5" r="2.5" fill="#F7941D" fill-opacity="0.5"/>
<circle cx="82.5" cy="102.5" r="2.5" fill="#F7941D" fill-opacity="0.5"/>
<circle cx="82.5" cy="122.5" r="2.5" fill="#F7941D" fill-opacity="0.5"/>
<circle cx="82.5" cy="142.5" r="2.5" fill="#F7941D" fill-opacity="0.5"/>
<circle cx="82.5" cy="12.5" r="2.5" fill="#F7941D" fill-opacity="0.5"/>
<circle cx="82.5" cy="32.5" r="2.5" fill="#F7941D" fill-opacity="0.5"/>
<circle cx="82.5" cy="52.5" r="2.5" fill="#F7941D" fill-opacity="0.5"/>
<circle cx="82.5" cy="72.5" r="2.5" fill="#F7941D" fill-opacity="0.5"/>
<circle cx="82.5" cy="92.5" r="2.5" fill="#F7941D" fill-opacity="0.5"/>
<circle cx="82.5" cy="112.5" r="2.5" fill="#F7941D" fill-opacity="0.5"/>
<circle cx="82.5" cy="132.5" r="2.5" fill="#F7941D" fill-opacity="0.5"/>
<circle cx="82.5" cy="152.5" r="2.5" fill="#F7941D" fill-opacity="0.5"/>
<circle cx="132.5" cy="2.5" r="2.5" fill="#F7941D" fill-opacity="0.5"/>
<circle cx="132.5" cy="22.5" r="2.5" fill="#F7941D" fill-opacity="0.5"/>
<circle cx="132.5" cy="42.5" r="2.5" fill="#F7941D" fill-opacity="0.5"/>
<circle cx="132.5" cy="62.5" r="2.5" fill="#F7941D" fill-opacity="0.5"/>
<circle cx="132.5" cy="82.5" r="2.5" fill="#F7941D" fill-opacity="0.5"/>
<circle cx="132.5" cy="102.5" r="2.5" fill="#F7941D" fill-opacity="0.5"/>
<circle cx="132.5" cy="122.5" r="2.5" fill="#F7941D" fill-opacity="0.5"/>
<circle cx="132.5" cy="142.5" r="2.5" fill="#F7941D" fill-opacity="0.5"/>
<circle cx="132.5" cy="12.5" r="2.5" fill="#F7941D" fill-opacity="0.5"/>
<circle cx="132.5" cy="32.5" r="2.5" fill="#F7941D" fill-opacity="0.5"/>
<circle cx="132.5" cy="52.5" r="2.5" fill="#F7941D" fill-opacity="0.5"/>
<circle cx="132.5" cy="72.5" r="2.5" fill="#F7941D" fill-opacity="0.5"/>
<circle cx="132.5" cy="92.5" r="2.5" fill="#F7941D" fill-opacity="0.5"/>
<circle cx="132.5" cy="112.5" r="2.5" fill="#F7941D" fill-opacity="0.5"/>
<circle cx="132.5" cy="132.5" r="2.5" fill="#F7941D" fill-opacity="0.5"/>
<circle cx="132.5" cy="152.5" r="2.5" fill="#F7941D" fill-opacity="0.5"/>
<circle cx="162.5" cy="2.5" r="2.5" fill="#F7941D" fill-opacity="0.5"/>
<circle cx="162.5" cy="22.5" r="2.5" fill="#F7941D" fill-opacity="0.5"/>
<circle cx="162.5" cy="42.5" r="2.5" fill="#F7941D" fill-opacity="0.5"/>
<circle cx="162.5" cy="62.5" r="2.5" fill="#F7941D" fill-opacity="0.5"/>
<circle cx="162.5" cy="82.5" r="2.5" fill="#F7941D" fill-opacity="0.5"/>
<circle cx="162.5" cy="102.5" r="2.5" fill="#F7941D" fill-opacity="0.5"/>
<circle cx="162.5" cy="122.5" r="2.5" fill="#F7941D" fill-opacity="0.5"/>
<circle cx="162.5" cy="142.5" r="2.5" fill="#F7941D" fill-opacity="0.5"/>
<circle cx="162.5" cy="12.5" r="2.5" fill="#F7941D" fill-opacity="0.5"/>
<circle cx="162.5" cy="32.5" r="2.5" fill="#F7941D" fill-opacity="0.5"/>
<circle cx="162.5" cy="52.5" r="2.5" fill="#F7941D" fill-opacity="0.5"/>
<circle cx="162.5" cy="72.5" r="2.5" fill="#F7941D" fill-opacity="0.5"/>
<circle cx="162.5" cy="92.5" r="2.5" fill="#F7941D" fill-opacity="0.5"/>
<circle cx="162.5" cy="112.5" r="2.5" fill="#F7941D" fill-opacity="0.5"/>
<circle cx="162.5" cy="132.5" r="2.5" fill="#F7941D" fill-opacity="0.5"/>
<circle cx="162.5" cy="152.5" r="2.5" fill="#F7941D" fill-opacity="0.5"/>
<circle cx="112.5" cy="2.5" r="2.5" fill="#F7941D" fill-opacity="0.5"/>
<circle cx="112.5" cy="22.5" r="2.5" fill="#F7941D" fill-opacity="0.5"/>
<circle cx="112.5" cy="42.5" r="2.5" fill="#F7941D" fill-opacity="0.5"/>
<circle cx="112.5" cy="62.5" r="2.5" fill="#F7941D" fill-opacity="0.5"/>
<circle cx="112.5" cy="82.5" r="2.5" fill="#F7941D" fill-opacity="0.5"/>
<circle cx="112.5" cy="102.5" r="2.5" fill="#F7941D" fill-opacity="0.5"/>
<circle cx="112.5" cy="122.5" r="2.5" fill="#F7941D" fill-opacity="0.5"/>
<circle cx="112.5" cy="142.5" r="2.5" fill="#F7941D" fill-opacity="0.5"/>
<circle cx="112.5" cy="12.5" r="2.5" fill="#F7941D" fill-opacity="0.5"/>
<circle cx="112.5" cy="32.5" r="2.5" fill="#F7941D" fill-opacity="0.5"/>
<circle cx="112.5" cy="52.5" r="2.5" fill="#F7941D" fill-opacity="0.5"/>
<circle cx="112.5" cy="72.5" r="2.5" fill="#F7941D" fill-opacity="0.5"/>
<circle cx="112.5" cy="92.5" r="2.5" fill="#F7941D" fill-opacity="0.5"/>
<circle cx="112.5" cy="112.5" r="2.5" fill="#F7941D" fill-opacity="0.5"/>
<circle cx="112.5" cy="132.5" r="2.5" fill="#F7941D" fill-opacity="0.5"/>
<circle cx="112.5" cy="152.5" r="2.5" fill="#F7941D" fill-opacity="0.5"/>
<circle cx="92.5" cy="2.5" r="2.5" fill="#F7941D" fill-opacity="0.5"/>
<circle cx="92.5" cy="22.5" r="2.5" fill="#F7941D" fill-opacity="0.5"/>
<circle cx="92.5" cy="42.5" r="2.5" fill="#F7941D" fill-opacity="0.5"/>
<circle cx="92.5" cy="62.5" r="2.5" fill="#F7941D" fill-opacity="0.5"/>
<circle cx="92.5" cy="82.5" r="2.5" fill="#F7941D" fill-opacity="0.5"/>
<circle cx="92.5" cy="102.5" r="2.5" fill="#F7941D" fill-opacity="0.5"/>
<circle cx="92.5" cy="122.5" r="2.5" fill="#F7941D" fill-opacity="0.5"/>
<circle cx="92.5" cy="142.5" r="2.5" fill="#F7941D" fill-opacity="0.5"/>
<circle cx="92.5" cy="12.5" r="2.5" fill="#F7941D" fill-opacity="0.5"/>
<circle cx="92.5" cy="32.5" r="2.5" fill="#F7941D" fill-opacity="0.5"/>
<circle cx="92.5" cy="52.5" r="2.5" fill="#F7941D" fill-opacity="0.5"/>
<circle cx="92.5" cy="72.5" r="2.5" fill="#F7941D" fill-opacity="0.5"/>
<circle cx="92.5" cy="92.5" r="2.5" fill="#F7941D" fill-opacity="0.5"/>
<circle cx="92.5" cy="112.5" r="2.5" fill="#F7941D" fill-opacity="0.5"/>
<circle cx="92.5" cy="132.5" r="2.5" fill="#F7941D" fill-opacity="0.5"/>
<circle cx="92.5" cy="152.5" r="2.5" fill="#F7941D" fill-opacity="0.5"/>
<circle cx="142.5" cy="2.5" r="2.5" fill="#F7941D" fill-opacity="0.5"/>
<circle cx="142.5" cy="22.5" r="2.5" fill="#F7941D" fill-opacity="0.5"/>
<circle cx="142.5" cy="42.5" r="2.5" fill="#F7941D" fill-opacity="0.5"/>
<circle cx="142.5" cy="62.5" r="2.5" fill="#F7941D" fill-opacity="0.5"/>
<circle cx="142.5" cy="82.5" r="2.5" fill="#F7941D" fill-opacity="0.5"/>
<circle cx="142.5" cy="102.5" r="2.5" fill="#F7941D" fill-opacity="0.5"/>
<circle cx="142.5" cy="122.5" r="2.5" fill="#F7941D" fill-opacity="0.5"/>
<circle cx="142.5" cy="142.5" r="2.5" fill="#F7941D" fill-opacity="0.5"/>
<circle cx="142.5" cy="12.5" r="2.5" fill="#F7941D" fill-opacity="0.5"/>
<circle cx="142.5" cy="32.5" r="2.5" fill="#F7941D" fill-opacity="0.5"/>
<circle cx="142.5" cy="52.5" r="2.5" fill="#F7941D" fill-opacity="0.5"/>
<circle cx="142.5" cy="72.5" r="2.5" fill="#F7941D" fill-opacity="0.5"/>
<circle cx="142.5" cy="92.5" r="2.5" fill="#F7941D" fill-opacity="0.5"/>
<circle cx="142.5" cy="112.5" r="2.5" fill="#F7941D" fill-opacity="0.5"/>
<circle cx="142.5" cy="132.5" r="2.5" fill="#F7941D" fill-opacity="0.5"/>
<circle cx="142.5" cy="152.5" r="2.5" fill="#F7941D" fill-opacity="0.5"/>
<circle cx="22.5" cy="162.5" r="2.5" fill="#F7941D" fill-opacity="0.5"/>
<circle cx="22.5" cy="182.5" r="2.5" fill="#F7941D" fill-opacity="0.5"/>
<circle cx="22.5" cy="202.5" r="2.5" fill="#F7941D" fill-opacity="0.5"/>
<circle cx="22.5" cy="222.5" r="2.5" fill="#F7941D" fill-opacity="0.5"/>
<circle cx="22.5" cy="242.5" r="2.5" fill="#F7941D" fill-opacity="0.5"/>
<circle cx="22.5" cy="262.5" r="2.5" fill="#F7941D" fill-opacity="0.5"/>
<circle cx="22.5" cy="282.5" r="2.5" fill="#F7941D" fill-opacity="0.5"/>
<circle cx="22.5" cy="302.5" r="2.5" fill="#F7941D" fill-opacity="0.5"/>
<circle cx="22.5" cy="172.5" r="2.5" fill="#F7941D" fill-opacity="0.5"/>
<circle cx="22.5" cy="192.5" r="2.5" fill="#F7941D" fill-opacity="0.5"/>
<circle cx="22.5" cy="212.5" r="2.5" fill="#F7941D" fill-opacity="0.5"/>
<circle cx="22.5" cy="232.5" r="2.5" fill="#F7941D" fill-opacity="0.5"/>
<circle cx="22.5" cy="252.5" r="2.5" fill="#F7941D" fill-opacity="0.5"/>
<circle cx="22.5" cy="272.5" r="2.5" fill="#F7941D" fill-opacity="0.5"/>
<circle cx="22.5" cy="292.5" r="2.5" fill="#F7941D" fill-opacity="0.5"/>
<circle cx="22.5" cy="312.5" r="2.5" fill="#F7941D" fill-opacity="0.5"/>
<circle cx="2.5" cy="162.5" r="2.5" fill="#F7941D" fill-opacity="0.5"/>
<circle cx="2.5" cy="182.5" r="2.5" fill="#F7941D" fill-opacity="0.5"/>
<circle cx="2.5" cy="202.5" r="2.5" fill="#F7941D" fill-opacity="0.5"/>
<circle cx="2.5" cy="222.5" r="2.5" fill="#F7941D" fill-opacity="0.5"/>
<circle cx="2.5" cy="242.5" r="2.5" fill="#F7941D" fill-opacity="0.5"/>
<circle cx="2.5" cy="262.5" r="2.5" fill="#F7941D" fill-opacity="0.5"/>
<circle cx="2.5" cy="282.5" r="2.5" fill="#F7941D" fill-opacity="0.5"/>
<circle cx="2.5" cy="302.5" r="2.5" fill="#F7941D" fill-opacity="0.5"/>
<circle cx="2.5" cy="172.5" r="2.5" fill="#F7941D" fill-opacity="0.5"/>
<circle cx="2.5" cy="192.5" r="2.5" fill="#F7941D" fill-opacity="0.5"/>
<circle cx="2.5" cy="212.5" r="2.5" fill="#F7941D" fill-opacity="0.5"/>
<circle cx="2.5" cy="232.5" r="2.5" fill="#F7941D" fill-opacity="0.5"/>
<circle cx="2.5" cy="252.5" r="2.5" fill="#F7941D" fill-opacity="0.5"/>
<circle cx="2.5" cy="272.5" r="2.5" fill="#F7941D" fill-opacity="0.5"/>
<circle cx="2.5" cy="292.5" r="2.5" fill="#F7941D" fill-opacity="0.5"/>
<circle cx="2.5" cy="312.5" r="2.5" fill="#F7941D" fill-opacity="0.5"/>
<circle cx="52.5" cy="162.5" r="2.5" fill="#F7941D" fill-opacity="0.5"/>
<circle cx="52.5" cy="182.5" r="2.5" fill="#F7941D" fill-opacity="0.5"/>
<circle cx="52.5" cy="202.5" r="2.5" fill="#F7941D" fill-opacity="0.5"/>
<circle cx="52.5" cy="222.5" r="2.5" fill="#F7941D" fill-opacity="0.5"/>
<circle cx="52.5" cy="242.5" r="2.5" fill="#F7941D" fill-opacity="0.5"/>
<circle cx="52.5" cy="262.5" r="2.5" fill="#F7941D" fill-opacity="0.5"/>
<circle cx="52.5" cy="282.5" r="2.5" fill="#F7941D" fill-opacity="0.5"/>
<circle cx="52.5" cy="302.5" r="2.5" fill="#F7941D" fill-opacity="0.5"/>
<circle cx="52.5" cy="172.5" r="2.5" fill="#F7941D" fill-opacity="0.5"/>
<circle cx="52.5" cy="192.5" r="2.5" fill="#F7941D" fill-opacity="0.5"/>
<circle cx="52.5" cy="212.5" r="2.5" fill="#F7941D" fill-opacity="0.5"/>
<circle cx="52.5" cy="232.5" r="2.5" fill="#F7941D" fill-opacity="0.5"/>
<circle cx="52.5" cy="252.5" r="2.5" fill="#F7941D" fill-opacity="0.5"/>
<circle cx="52.5" cy="272.5" r="2.5" fill="#F7941D" fill-opacity="0.5"/>
<circle cx="52.5" cy="292.5" r="2.5" fill="#F7941D" fill-opacity="0.5"/>
<circle cx="52.5" cy="312.5" r="2.5" fill="#F7941D" fill-opacity="0.5"/>
<circle cx="32.5" cy="162.5" r="2.5" fill="#F7941D" fill-opacity="0.5"/>
<circle cx="32.5" cy="182.5" r="2.5" fill="#F7941D" fill-opacity="0.5"/>
<circle cx="32.5" cy="202.5" r="2.5" fill="#F7941D" fill-opacity="0.5"/>
<circle cx="32.5" cy="222.5" r="2.5" fill="#F7941D" fill-opacity="0.5"/>
<circle cx="32.5" cy="242.5" r="2.5" fill="#F7941D" fill-opacity="0.5"/>
<circle cx="32.5" cy="262.5" r="2.5" fill="#F7941D" fill-opacity="0.5"/>
<circle cx="32.5" cy="282.5" r="2.5" fill="#F7941D" fill-opacity="0.5"/>
<circle cx="32.5" cy="302.5" r="2.5" fill="#F7941D" fill-opacity="0.5"/>
<circle cx="32.5" cy="172.5" r="2.5" fill="#F7941D" fill-opacity="0.5"/>
<circle cx="32.5" cy="192.5" r="2.5" fill="#F7941D" fill-opacity="0.5"/>
<circle cx="32.5" cy="212.5" r="2.5" fill="#F7941D" fill-opacity="0.5"/>
<circle cx="32.5" cy="232.5" r="2.5" fill="#F7941D" fill-opacity="0.5"/>
<circle cx="32.5" cy="252.5" r="2.5" fill="#F7941D" fill-opacity="0.5"/>
<circle cx="32.5" cy="272.5" r="2.5" fill="#F7941D" fill-opacity="0.5"/>
<circle cx="32.5" cy="292.5" r="2.5" fill="#F7941D" fill-opacity="0.5"/>
<circle cx="32.5" cy="312.5" r="2.5" fill="#F7941D" fill-opacity="0.5"/>
<circle cx="12.5" cy="162.5" r="2.5" fill="#F7941D" fill-opacity="0.5"/>
<circle cx="12.5" cy="182.5" r="2.5" fill="#F7941D" fill-opacity="0.5"/>
<circle cx="12.5" cy="202.5" r="2.5" fill="#F7941D" fill-opacity="0.5"/>
<circle cx="12.5" cy="222.5" r="2.5" fill="#F7941D" fill-opacity="0.5"/>
<circle cx="12.5" cy="242.5" r="2.5" fill="#F7941D" fill-opacity="0.5"/>
<circle cx="12.5" cy="262.5" r="2.5" fill="#F7941D" fill-opacity="0.5"/>
<circle cx="12.5" cy="282.5" r="2.5" fill="#F7941D" fill-opacity="0.5"/>
<circle cx="12.5" cy="302.5" r="2.5" fill="#F7941D" fill-opacity="0.5"/>
<circle cx="12.5" cy="172.5" r="2.5" fill="#F7941D" fill-opacity="0.5"/>
<circle cx="12.5" cy="192.5" r="2.5" fill="#F7941D" fill-opacity="0.5"/>
<circle cx="12.5" cy="212.5" r="2.5" fill="#F7941D" fill-opacity="0.5"/>
<circle cx="12.5" cy="232.5" r="2.5" fill="#F7941D" fill-opacity="0.5"/>
<circle cx="12.5" cy="252.5" r="2.5" fill="#F7941D" fill-opacity="0.5"/>
<circle cx="12.5" cy="272.5" r="2.5" fill="#F7941D" fill-opacity="0.5"/>
<circle cx="12.5" cy="292.5" r="2.5" fill="#F7941D" fill-opacity="0.5"/>
<circle cx="12.5" cy="312.5" r="2.5" fill="#F7941D" fill-opacity="0.5"/>
<circle cx="62.5" cy="162.5" r="2.5" fill="#F7941D" fill-opacity="0.5"/>
<circle cx="62.5" cy="182.5" r="2.5" fill="#F7941D" fill-opacity="0.5"/>
<circle cx="62.5" cy="202.5" r="2.5" fill="#F7941D" fill-opacity="0.5"/>
<circle cx="62.5" cy="222.5" r="2.5" fill="#F7941D" fill-opacity="0.5"/>
<circle cx="62.5" cy="242.5" r="2.5" fill="#F7941D" fill-opacity="0.5"/>
<circle cx="62.5" cy="262.5" r="2.5" fill="#F7941D" fill-opacity="0.5"/>
<circle cx="62.5" cy="282.5" r="2.5" fill="#F7941D" fill-opacity="0.5"/>
<circle cx="62.5" cy="302.5" r="2.5" fill="#F7941D" fill-opacity="0.5"/>
<circle cx="62.5" cy="172.5" r="2.5" fill="#F7941D" fill-opacity="0.5"/>
<circle cx="62.5" cy="192.5" r="2.5" fill="#F7941D" fill-opacity="0.5"/>
<circle cx="62.5" cy="212.5" r="2.5" fill="#F7941D" fill-opacity="0.5"/>
<circle cx="62.5" cy="232.5" r="2.5" fill="#F7941D" fill-opacity="0.5"/>
<circle cx="62.5" cy="252.5" r="2.5" fill="#F7941D" fill-opacity="0.5"/>
<circle cx="62.5" cy="272.5" r="2.5" fill="#F7941D" fill-opacity="0.5"/>
<circle cx="62.5" cy="292.5" r="2.5" fill="#F7941D" fill-opacity="0.5"/>
<circle cx="62.5" cy="312.5" r="2.5" fill="#F7941D" fill-opacity="0.5"/>
<circle cx="42.5" cy="162.5" r="2.5" fill="#F7941D" fill-opacity="0.5"/>
<circle cx="42.5" cy="182.5" r="2.5" fill="#F7941D" fill-opacity="0.5"/>
<circle cx="42.5" cy="202.5" r="2.5" fill="#F7941D" fill-opacity="0.5"/>
<circle cx="42.5" cy="222.5" r="2.5" fill="#F7941D" fill-opacity="0.5"/>
<circle cx="42.5" cy="242.5" r="2.5" fill="#F7941D" fill-opacity="0.5"/>
<circle cx="42.5" cy="262.5" r="2.5" fill="#F7941D" fill-opacity="0.5"/>
<circle cx="42.5" cy="282.5" r="2.5" fill="#F7941D" fill-opacity="0.5"/>
<circle cx="42.5" cy="302.5" r="2.5" fill="#F7941D" fill-opacity="0.5"/>
<circle cx="42.5" cy="172.5" r="2.5" fill="#F7941D" fill-opacity="0.5"/>
<circle cx="42.5" cy="192.5" r="2.5" fill="#F7941D" fill-opacity="0.5"/>
<circle cx="42.5" cy="212.5" r="2.5" fill="#F7941D" fill-opacity="0.5"/>
<circle cx="42.5" cy="232.5" r="2.5" fill="#F7941D" fill-opacity="0.5"/>
<circle cx="42.5" cy="252.5" r="2.5" fill="#F7941D" fill-opacity="0.5"/>
<circle cx="42.5" cy="272.5" r="2.5" fill="#F7941D" fill-opacity="0.5"/>
<circle cx="42.5" cy="292.5" r="2.5" fill="#F7941D" fill-opacity="0.5"/>
<circle cx="42.5" cy="312.5" r="2.5" fill="#F7941D" fill-opacity="0.5"/>
<circle cx="72.5" cy="162.5" r="2.5" fill="#F7941D" fill-opacity="0.5"/>
<circle cx="72.5" cy="182.5" r="2.5" fill="#F7941D" fill-opacity="0.5"/>
<circle cx="72.5" cy="202.5" r="2.5" fill="#F7941D" fill-opacity="0.5"/>
<circle cx="72.5" cy="222.5" r="2.5" fill="#F7941D" fill-opacity="0.5"/>
<circle cx="72.5" cy="242.5" r="2.5" fill="#F7941D" fill-opacity="0.5"/>
<circle cx="72.5" cy="262.5" r="2.5" fill="#F7941D" fill-opacity="0.5"/>
<circle cx="72.5" cy="282.5" r="2.5" fill="#F7941D" fill-opacity="0.5"/>
<circle cx="72.5" cy="302.5" r="2.5" fill="#F7941D" fill-opacity="0.5"/>
<circle cx="72.5" cy="172.5" r="2.5" fill="#F7941D" fill-opacity="0.5"/>
<circle cx="72.5" cy="192.5" r="2.5" fill="#F7941D" fill-opacity="0.5"/>
<circle cx="72.5" cy="212.5" r="2.5" fill="#F7941D" fill-opacity="0.5"/>
<circle cx="72.5" cy="232.5" r="2.5" fill="#F7941D" fill-opacity="0.5"/>
<circle cx="72.5" cy="252.5" r="2.5" fill="#F7941D" fill-opacity="0.5"/>
<circle cx="72.5" cy="272.5" r="2.5" fill="#F7941D" fill-opacity="0.5"/>
<circle cx="72.5" cy="292.5" r="2.5" fill="#F7941D" fill-opacity="0.5"/>
<circle cx="72.5" cy="312.5" r="2.5" fill="#F7941D" fill-opacity="0.5"/>
<circle cx="122.5" cy="162.5" r="2.5" fill="#F7941D" fill-opacity="0.5"/>
<circle cx="122.5" cy="182.5" r="2.5" fill="#F7941D" fill-opacity="0.5"/>
<circle cx="122.5" cy="202.5" r="2.5" fill="#F7941D" fill-opacity="0.5"/>
<circle cx="122.5" cy="222.5" r="2.5" fill="#F7941D" fill-opacity="0.5"/>
<circle cx="122.5" cy="242.5" r="2.5" fill="#F7941D" fill-opacity="0.5"/>
<circle cx="122.5" cy="262.5" r="2.5" fill="#F7941D" fill-opacity="0.5"/>
<circle cx="122.5" cy="282.5" r="2.5" fill="#F7941D" fill-opacity="0.5"/>
<circle cx="122.5" cy="302.5" r="2.5" fill="#F7941D" fill-opacity="0.5"/>
<circle cx="122.5" cy="172.5" r="2.5" fill="#F7941D" fill-opacity="0.5"/>
<circle cx="122.5" cy="192.5" r="2.5" fill="#F7941D" fill-opacity="0.5"/>
<circle cx="122.5" cy="212.5" r="2.5" fill="#F7941D" fill-opacity="0.5"/>
<circle cx="122.5" cy="232.5" r="2.5" fill="#F7941D" fill-opacity="0.5"/>
<circle cx="122.5" cy="252.5" r="2.5" fill="#F7941D" fill-opacity="0.5"/>
<circle cx="122.5" cy="272.5" r="2.5" fill="#F7941D" fill-opacity="0.5"/>
<circle cx="122.5" cy="292.5" r="2.5" fill="#F7941D" fill-opacity="0.5"/>
<circle cx="122.5" cy="312.5" r="2.5" fill="#F7941D" fill-opacity="0.5"/>
<circle cx="152.5" cy="162.5" r="2.5" fill="#F7941D" fill-opacity="0.5"/>
<circle cx="152.5" cy="182.5" r="2.5" fill="#F7941D" fill-opacity="0.5"/>
<circle cx="152.5" cy="202.5" r="2.5" fill="#F7941D" fill-opacity="0.5"/>
<circle cx="152.5" cy="222.5" r="2.5" fill="#F7941D" fill-opacity="0.5"/>
<circle cx="152.5" cy="242.5" r="2.5" fill="#F7941D" fill-opacity="0.5"/>
<circle cx="152.5" cy="262.5" r="2.5" fill="#F7941D" fill-opacity="0.5"/>
<circle cx="152.5" cy="282.5" r="2.5" fill="#F7941D" fill-opacity="0.5"/>
<circle cx="152.5" cy="302.5" r="2.5" fill="#F7941D" fill-opacity="0.5"/>
<circle cx="152.5" cy="172.5" r="2.5" fill="#F7941D" fill-opacity="0.5"/>
<circle cx="152.5" cy="192.5" r="2.5" fill="#F7941D" fill-opacity="0.5"/>
<circle cx="152.5" cy="212.5" r="2.5" fill="#F7941D" fill-opacity="0.5"/>
<circle cx="152.5" cy="232.5" r="2.5" fill="#F7941D" fill-opacity="0.5"/>
<circle cx="152.5" cy="252.5" r="2.5" fill="#F7941D" fill-opacity="0.5"/>
<circle cx="152.5" cy="272.5" r="2.5" fill="#F7941D" fill-opacity="0.5"/>
<circle cx="152.5" cy="292.5" r="2.5" fill="#F7941D" fill-opacity="0.5"/>
<circle cx="152.5" cy="312.5" r="2.5" fill="#F7941D" fill-opacity="0.5"/>
<circle cx="102.5" cy="162.5" r="2.5" fill="#F7941D" fill-opacity="0.5"/>
<circle cx="102.5" cy="182.5" r="2.5" fill="#F7941D" fill-opacity="0.5"/>
<circle cx="102.5" cy="202.5" r="2.5" fill="#F7941D" fill-opacity="0.5"/>
<circle cx="102.5" cy="222.5" r="2.5" fill="#F7941D" fill-opacity="0.5"/>
<circle cx="102.5" cy="242.5" r="2.5" fill="#F7941D" fill-opacity="0.5"/>
<circle cx="102.5" cy="262.5" r="2.5" fill="#F7941D" fill-opacity="0.5"/>
<circle cx="102.5" cy="282.5" r="2.5" fill="#F7941D" fill-opacity="0.5"/>
<circle cx="102.5" cy="302.5" r="2.5" fill="#F7941D" fill-opacity="0.5"/>
<circle cx="102.5" cy="172.5" r="2.5" fill="#F7941D" fill-opacity="0.5"/>
<circle cx="102.5" cy="192.5" r="2.5" fill="#F7941D" fill-opacity="0.5"/>
<circle cx="102.5" cy="212.5" r="2.5" fill="#F7941D" fill-opacity="0.5"/>
<circle cx="102.5" cy="232.5" r="2.5" fill="#F7941D" fill-opacity="0.5"/>
<circle cx="102.5" cy="252.5" r="2.5" fill="#F7941D" fill-opacity="0.5"/>
<circle cx="102.5" cy="272.5" r="2.5" fill="#F7941D" fill-opacity="0.5"/>
<circle cx="102.5" cy="292.5" r="2.5" fill="#F7941D" fill-opacity="0.5"/>
<circle cx="102.5" cy="312.5" r="2.5" fill="#F7941D" fill-opacity="0.5"/>
<circle cx="82.5" cy="162.5" r="2.5" fill="#F7941D" fill-opacity="0.5"/>
<circle cx="82.5" cy="182.5" r="2.5" fill="#F7941D" fill-opacity="0.5"/>
<circle cx="82.5" cy="202.5" r="2.5" fill="#F7941D" fill-opacity="0.5"/>
<circle cx="82.5" cy="222.5" r="2.5" fill="#F7941D" fill-opacity="0.5"/>
<circle cx="82.5" cy="242.5" r="2.5" fill="#F7941D" fill-opacity="0.5"/>
<circle cx="82.5" cy="262.5" r="2.5" fill="#F7941D" fill-opacity="0.5"/>
<circle cx="82.5" cy="282.5" r="2.5" fill="#F7941D" fill-opacity="0.5"/>
<circle cx="82.5" cy="302.5" r="2.5" fill="#F7941D" fill-opacity="0.5"/>
<circle cx="82.5" cy="172.5" r="2.5" fill="#F7941D" fill-opacity="0.5"/>
<circle cx="82.5" cy="192.5" r="2.5" fill="#F7941D" fill-opacity="0.5"/>
<circle cx="82.5" cy="212.5" r="2.5" fill="#F7941D" fill-opacity="0.5"/>
<circle cx="82.5" cy="232.5" r="2.5" fill="#F7941D" fill-opacity="0.5"/>
<circle cx="82.5" cy="252.5" r="2.5" fill="#F7941D" fill-opacity="0.5"/>
<circle cx="82.5" cy="272.5" r="2.5" fill="#F7941D" fill-opacity="0.5"/>
<circle cx="82.5" cy="292.5" r="2.5" fill="#F7941D" fill-opacity="0.5"/>
<circle cx="82.5" cy="312.5" r="2.5" fill="#F7941D" fill-opacity="0.5"/>
<circle cx="132.5" cy="162.5" r="2.5" fill="#F7941D" fill-opacity="0.5"/>
<circle cx="132.5" cy="182.5" r="2.5" fill="#F7941D" fill-opacity="0.5"/>
<circle cx="132.5" cy="202.5" r="2.5" fill="#F7941D" fill-opacity="0.5"/>
<circle cx="132.5" cy="222.5" r="2.5" fill="#F7941D" fill-opacity="0.5"/>
<circle cx="132.5" cy="242.5" r="2.5" fill="#F7941D" fill-opacity="0.5"/>
<circle cx="132.5" cy="262.5" r="2.5" fill="#F7941D" fill-opacity="0.5"/>
<circle cx="132.5" cy="282.5" r="2.5" fill="#F7941D" fill-opacity="0.5"/>
<circle cx="132.5" cy="302.5" r="2.5" fill="#F7941D" fill-opacity="0.5"/>
<circle cx="132.5" cy="172.5" r="2.5" fill="#F7941D" fill-opacity="0.5"/>
<circle cx="132.5" cy="192.5" r="2.5" fill="#F7941D" fill-opacity="0.5"/>
<circle cx="132.5" cy="212.5" r="2.5" fill="#F7941D" fill-opacity="0.5"/>
<circle cx="132.5" cy="232.5" r="2.5" fill="#F7941D" fill-opacity="0.5"/>
<circle cx="132.5" cy="252.5" r="2.5" fill="#F7941D" fill-opacity="0.5"/>
<circle cx="132.5" cy="272.5" r="2.5" fill="#F7941D" fill-opacity="0.5"/>
<circle cx="132.5" cy="292.5" r="2.5" fill="#F7941D" fill-opacity="0.5"/>
<circle cx="132.5" cy="312.5" r="2.5" fill="#F7941D" fill-opacity="0.5"/>
<circle cx="162.5" cy="162.5" r="2.5" fill="#F7941D" fill-opacity="0.5"/>
<circle cx="162.5" cy="182.5" r="2.5" fill="#F7941D" fill-opacity="0.5"/>
<circle cx="162.5" cy="202.5" r="2.5" fill="#F7941D" fill-opacity="0.5"/>
<circle cx="162.5" cy="222.5" r="2.5" fill="#F7941D" fill-opacity="0.5"/>
<circle cx="162.5" cy="242.5" r="2.5" fill="#F7941D" fill-opacity="0.5"/>
<circle cx="162.5" cy="262.5" r="2.5" fill="#F7941D" fill-opacity="0.5"/>
<circle cx="162.5" cy="282.5" r="2.5" fill="#F7941D" fill-opacity="0.5"/>
<circle cx="162.5" cy="302.5" r="2.5" fill="#F7941D" fill-opacity="0.5"/>
<circle cx="162.5" cy="172.5" r="2.5" fill="#F7941D" fill-opacity="0.5"/>
<circle cx="162.5" cy="192.5" r="2.5" fill="#F7941D" fill-opacity="0.5"/>
<circle cx="162.5" cy="212.5" r="2.5" fill="#F7941D" fill-opacity="0.5"/>
<circle cx="162.5" cy="232.5" r="2.5" fill="#F7941D" fill-opacity="0.5"/>
<circle cx="162.5" cy="252.5" r="2.5" fill="#F7941D" fill-opacity="0.5"/>
<circle cx="162.5" cy="272.5" r="2.5" fill="#F7941D" fill-opacity="0.5"/>
<circle cx="162.5" cy="292.5" r="2.5" fill="#F7941D" fill-opacity="0.5"/>
<circle cx="162.5" cy="312.5" r="2.5" fill="#F7941D" fill-opacity="0.5"/>
<circle cx="112.5" cy="162.5" r="2.5" fill="#F7941D" fill-opacity="0.5"/>
<circle cx="112.5" cy="182.5" r="2.5" fill="#F7941D" fill-opacity="0.5"/>
<circle cx="112.5" cy="202.5" r="2.5" fill="#F7941D" fill-opacity="0.5"/>
<circle cx="112.5" cy="222.5" r="2.5" fill="#F7941D" fill-opacity="0.5"/>
<circle cx="112.5" cy="242.5" r="2.5" fill="#F7941D" fill-opacity="0.5"/>
<circle cx="112.5" cy="262.5" r="2.5" fill="#F7941D" fill-opacity="0.5"/>
<circle cx="112.5" cy="282.5" r="2.5" fill="#F7941D" fill-opacity="0.5"/>
<circle cx="112.5" cy="302.5" r="2.5" fill="#F7941D" fill-opacity="0.5"/>
<circle cx="112.5" cy="172.5" r="2.5" fill="#F7941D" fill-opacity="0.5"/>
<circle cx="112.5" cy="192.5" r="2.5" fill="#F7941D" fill-opacity="0.5"/>
<circle cx="112.5" cy="212.5" r="2.5" fill="#F7941D" fill-opacity="0.5"/>
<circle cx="112.5" cy="232.5" r="2.5" fill="#F7941D" fill-opacity="0.5"/>
<circle cx="112.5" cy="252.5" r="2.5" fill="#F7941D" fill-opacity="0.5"/>
<circle cx="112.5" cy="272.5" r="2.5" fill="#F7941D" fill-opacity="0.5"/>
<circle cx="112.5" cy="292.5" r="2.5" fill="#F7941D" fill-opacity="0.5"/>
<circle cx="112.5" cy="312.5" r="2.5" fill="#F7941D" fill-opacity="0.5"/>
<circle cx="92.5" cy="162.5" r="2.5" fill="#F7941D" fill-opacity="0.5"/>
<circle cx="92.5" cy="182.5" r="2.5" fill="#F7941D" fill-opacity="0.5"/>
<circle cx="92.5" cy="202.5" r="2.5" fill="#F7941D" fill-opacity="0.5"/>
<circle cx="92.5" cy="222.5" r="2.5" fill="#F7941D" fill-opacity="0.5"/>
<circle cx="92.5" cy="242.5" r="2.5" fill="#F7941D" fill-opacity="0.5"/>
<circle cx="92.5" cy="262.5" r="2.5" fill="#F7941D" fill-opacity="0.5"/>
<circle cx="92.5" cy="282.5" r="2.5" fill="#F7941D" fill-opacity="0.5"/>
<circle cx="92.5" cy="302.5" r="2.5" fill="#F7941D" fill-opacity="0.5"/>
<circle cx="92.5" cy="172.5" r="2.5" fill="#F7941D" fill-opacity="0.5"/>
<circle cx="92.5" cy="192.5" r="2.5" fill="#F7941D" fill-opacity="0.5"/>
<circle cx="92.5" cy="212.5" r="2.5" fill="#F7941D" fill-opacity="0.5"/>
<circle cx="92.5" cy="232.5" r="2.5" fill="#F7941D" fill-opacity="0.5"/>
<circle cx="92.5" cy="252.5" r="2.5" fill="#F7941D" fill-opacity="0.5"/>
<circle cx="92.5" cy="272.5" r="2.5" fill="#F7941D" fill-opacity="0.5"/>
<circle cx="92.5" cy="292.5" r="2.5" fill="#F7941D" fill-opacity="0.5"/>
<circle cx="92.5" cy="312.5" r="2.5" fill="#F7941D" fill-opacity="0.5"/>
<circle cx="142.5" cy="162.5" r="2.5" fill="#F7941D" fill-opacity="0.5"/>
<circle cx="142.5" cy="182.5" r="2.5" fill="#F7941D" fill-opacity="0.5"/>
<circle cx="142.5" cy="202.5" r="2.5" fill="#F7941D" fill-opacity="0.5"/>
<circle cx="142.5" cy="222.5" r="2.5" fill="#F7941D" fill-opacity="0.5"/>
<circle cx="142.5" cy="242.5" r="2.5" fill="#F7941D" fill-opacity="0.5"/>
<circle cx="142.5" cy="262.5" r="2.5" fill="#F7941D" fill-opacity="0.5"/>
<circle cx="142.5" cy="282.5" r="2.5" fill="#F7941D" fill-opacity="0.5"/>
<circle cx="142.5" cy="302.5" r="2.5" fill="#F7941D" fill-opacity="0.5"/>
<circle cx="142.5" cy="172.5" r="2.5" fill="#F7941D" fill-opacity="0.5"/>
<circle cx="142.5" cy="192.5" r="2.5" fill="#F7941D" fill-opacity="0.5"/>
<circle cx="142.5" cy="212.5" r="2.5" fill="#F7941D" fill-opacity="0.5"/>
<circle cx="142.5" cy="232.5" r="2.5" fill="#F7941D" fill-opacity="0.5"/>
<circle cx="142.5" cy="252.5" r="2.5" fill="#F7941D" fill-opacity="0.5"/>
<circle cx="142.5" cy="272.5" r="2.5" fill="#F7941D" fill-opacity="0.5"/>
<circle cx="142.5" cy="292.5" r="2.5" fill="#F7941D" fill-opacity="0.5"/>
<circle cx="142.5" cy="312.5" r="2.5" fill="#F7941D" fill-opacity="0.5"/>
</svg>
