<svg width="339" height="254" viewBox="0 0 339 254" fill="none" xmlns="http://www.w3.org/2000/svg">
<circle cx="212" cy="127" r="127" fill="#F7941D" fill-opacity="0.59"/>
<circle cx="212.604" cy="127" r="61.081" fill="white"/>
<rect x="1" y="29" width="220" height="62" fill="#272F54"/>
<path d="M174.31 174.828L159.65 96.7914L253.685 172.742L174.31 174.828Z" fill="#272F54"/>
<circle cx="251.5" cy="152.5" r="14.5" fill="#272F54"/>
<path d="M1 82.6765L15.5297 68L30.0594 82.6765L44.8826 68L59.559 82.6765L74.3823 68L88.9119 82.6765L103.588 68L118.265 82.6765L132.941 68L147.618 82.6765L162.294 68L176.971 82.6765L191.647 68L206.324 82.6765L221 68" stroke="white"/>
<path d="M1 90.0147L15.5297 75.3383L30.0594 90.0147L44.8826 75.3383L59.559 90.0147L74.3823 75.3383L88.9119 90.0147L103.588 75.3383L118.265 90.0147L132.941 75.3383L147.618 90.0147L162.294 75.3383L176.971 90.0147L191.647 75.3383L206.324 90.0147L221 75.3383" stroke="white"/>
<circle cx="30.2057" cy="73.8706" r="2.34823" fill="white"/>
<circle cx="15.5299" cy="84.7312" r="2.34823" fill="white"/>
<circle cx="59.5592" cy="73.8706" r="2.34823" fill="white"/>
<circle cx="44.8824" cy="84.7312" r="2.34823" fill="white"/>
<circle cx="88.9117" cy="73.8706" r="2.34823" fill="white"/>
<circle cx="74.235" cy="84.7312" r="2.34823" fill="white"/>
<circle cx="147.618" cy="73.8706" r="2.34823" fill="white"/>
<circle cx="132.941" cy="84.7312" r="2.34823" fill="white"/>
<circle cx="206.324" cy="73.8706" r="2.34823" fill="white"/>
<circle cx="191.647" cy="84.7312" r="2.34823" fill="white"/>
<circle cx="118.265" cy="73.8706" r="2.34823" fill="white"/>
<circle cx="103.588" cy="84.7312" r="2.34823" fill="white"/>
<circle cx="176.97" cy="73.8706" r="2.34823" fill="white"/>
<circle cx="162.295" cy="84.7312" r="2.34823" fill="white"/>
</svg>
