<svg width="290" height="31" viewBox="0 0 290 31" fill="none" xmlns="http://www.w3.org/2000/svg">
<path d="M1 20.2128L20.0207 1L39.0414 20.2128L58.4463 1L77.6591 20.2128L97.064 1L116.085 20.2128L135.298 1L154.51 20.2128L173.723 1L192.936 20.2128L212.149 1L231.362 20.2128L250.574 1L269.787 20.2128L289 1" stroke="#272F54"/>
<path d="M1 29.8192L20.0207 10.6064L39.0414 29.8192L58.4463 10.6064L77.6591 29.8192L97.064 10.6064L116.085 29.8192L135.298 10.6064L154.51 29.8192L173.723 10.6064L192.936 29.8192L212.149 10.6064L231.362 29.8192L250.574 10.6064L269.787 29.8192L289 10.6064" stroke="#272F54"/>
<circle cx="39.2332" cy="8.68513" r="3.07405" fill="#272F54"/>
<circle cx="20.0203" cy="22.9026" r="3.07405" fill="#272F54"/>
<circle cx="77.659" cy="8.68513" r="3.07405" fill="#272F54"/>
<circle cx="58.4461" cy="22.9026" r="3.07405" fill="#272F54"/>
<circle cx="116.085" cy="8.68513" r="3.07405" fill="#272F54"/>
<circle cx="96.8719" cy="22.9026" r="3.07405" fill="#272F54"/>
<circle cx="192.936" cy="8.68513" r="3.07405" fill="#272F54"/>
<circle cx="173.723" cy="22.9026" r="3.07405" fill="#272F54"/>
<circle cx="269.787" cy="8.68513" r="3.07405" fill="#272F54"/>
<circle cx="250.574" cy="22.9026" r="3.07405" fill="#272F54"/>
<circle cx="154.511" cy="8.68513" r="3.07405" fill="#272F54"/>
<circle cx="135.298" cy="22.9026" r="3.07405" fill="#272F54"/>
<circle cx="231.361" cy="8.68513" r="3.07405" fill="#272F54"/>
<circle cx="212.149" cy="22.9026" r="3.07405" fill="#272F54"/>
</svg>
