<svg width="263" height="263" viewBox="0 0 263 263" fill="none" xmlns="http://www.w3.org/2000/svg">
<path fill-rule="evenodd" clip-rule="evenodd" d="M263 0H0V176C48.0488 176 87 214.951 87 263H263V0ZM82 263C82 217.713 45.2874 181 0 181V188C41.4214 188 75 221.579 75 263H82ZM70 263C70 224.34 38.6599 193 0 193V202C33.6894 202 61 229.311 61 263H70ZM56 263C56 232.072 30.9279 207 0 207V215C26.5097 215 48 236.49 48 263H56ZM43 263C43 239.252 23.7482 220 0 220V230C18.2254 230 33 244.775 33 263H43ZM28 263C28 247.536 15.464 235 0 235V263H28Z" fill="#F7941D" fill-opacity="0.59"/>
</svg>
