<svg id="Layer_1" data-name="Layer 1" xmlns="http://www.w3.org/2000/svg" viewBox="0 0 103.352 295.195"><defs><style>.cls-1{fill:#684c41;}.cls-2{fill:#f27e64;}.cls-3{fill:#fff;}.cls-4{fill:#393972;}.cls-5{fill:#e86546;}.cls-6{fill:#ff9280;}.cls-7{fill:#46467f;}.cls-8{fill:#ffbf69;}.cls-9{fill:#7772d3;}.cls-10{fill:#ada095;}.cls-11{fill:#7c6053;}.cls-12{fill:#c3b8ae;}.cls-13{fill:#f4eab3;}.cls-14{fill:#fefce5;}.cls-15{fill:#7f6754;}.cls-16{fill:#2f2f68;}.cls-17{fill:#f7734f;}.cls-18{font-size:36.627px;font-family:MyriadPro-Regular, Myriad Pro;}</style></defs><title>Artboard 19</title><path d="M51.947,37.6s8.648,7.254,9.291,16.064c.974,13.333-12.663,7.5-14.162-1S51.947,37.6,51.947,37.6Z"/><polygon class="cls-1" points="16.429 107.08 11.891 122.858 18.69 123.747 21.396 110.525 16.429 107.08"/><polygon class="cls-2" points="72.343 238.08 68.461 260.747 55.107 269.08 42.777 264.414 44.751 238.08 72.343 238.08"/><polygon class="cls-3" points="70.346 249.74 41.532 249.74 36.673 264.414 68.461 260.747 70.346 249.74"/><path class="cls-4" d="M39.409,264.414,47,280.534l4.8,10.21s47.351,2,49.752,0,2.4-7.66,0-10-30.573-19.33-30.573-19.33,0-4.67-1.753-5.12-13.434,5.12-13.434,5.12l-13.622-5.14Z"/><path class="cls-5" d="M47,280.534l4.8,10.21s47.351,2,49.752,0,2.4-7.66,0-10c0,0-32.5,2.67-50.571,0A16.784,16.784,0,0,0,47,280.534Z"/><polygon class="cls-6" points="45.852 240.858 42.777 264.414 20.026 264.414 19.066 240.858 45.852 240.858"/><polygon class="cls-3" points="42.777 264.414 44.315 252.636 19.546 252.636 20.026 264.414 42.777 264.414"/><path class="cls-7" d="M13.036,286.414c0,2.89,1.591,6.89,7.193,8.22s34.853,0,35.761-1.11c.485-.58.791-2.94.971-5.06a10.821,10.821,0,0,0-1.421-6.41l-11.977-20.31s-3.3-3.77-9.72-3.11-9.639,3.11-9.639,3.11-2.977-3.35-4.379-2.23c-1.16.93-5.063,16.83-6.366,23.88A21.758,21.758,0,0,0,13.036,286.414Z"/><path class="cls-8" d="M67.644,111.259s7.749,30.9,11.06,57.06,5.167,68.6,3.014,70.177-27.424,3.518-27.424,3.518-8.518,3.591-23.227,3.151a78.363,78.363,0,0,1-19.357-3.1s1.549-116.192,9.6-134.134C27.605,93.891,67.644,111.259,67.644,111.259Z"/><path class="cls-9" d="M67.793,105.939v6.7s-15.26,3.889-27.786,2.889S22.8,112.08,22.8,112.08l-5.323-34,16-25.044,13.087-1.178L78.473,77.58l-7.793,23.5Z"/><path d="M52.722,36.692a13.182,13.182,0,0,0,2.222-9.778c-.61-4.03-2.222-5.334-2.222-5.334s2.456-5.5-4.855-5.166a19.388,19.388,0,0,0-11.612,4.325s-3.341-1.825-4.84,2.508,0,10.726,0,10.726Z"/><polygon class="cls-10" points="57.651 97.08 51.729 66.414 31.141 66.414 35.782 98.891 57.651 97.08"/><path class="cls-11" d="M35.794,131.084c2.914,2.02,6.376,0,6.376,0a127.612,127.612,0,0,0,13.28-33.62c.072-.3.135-.6.2-.9a92.736,92.736,0,0,0,1.925-11.99c.035-.27.054-.53.08-.8.405-4.85.648-8.89.756-12.25H55.055l-.989-5.11h-2.4c-.09,1.6-.207,3.31-.369,5.11-.3,3.33-.728,6.96-1.349,10.75a113.267,113.267,0,0,1-3.776,15.95q-.27.87-.567,1.74c-7.6,22.23-11.32,24.89-11.32,24.89S32.6,128.854,35.794,131.084Z"/><polygon class="cls-12" points="33.483 66.414 38.123 98.894 46.171 98.224 55.45 97.464 59.991 97.084 59.695 95.564 57.573 84.574 55.055 71.524 54.066 66.414 33.483 66.414"/><polygon class="cls-13" points="67.989 92.858 62.793 71.525 45.177 71.525 50.156 97.252 67.989 92.858"/><polygon class="cls-14" points="47.87 71.524 49.947 82.274 52.843 97.254 55.648 96.564 59.695 95.564 70.683 92.854 65.485 71.524 47.87 71.524"/><path class="cls-2" d="M67.28,89.747s-6.608-.762-8.006-.762-3.281,3.651-3.281,3.651L51.8,93.981l4.79,14.988s9.968,1.441,14.088-3.889C72.226,103.08,67.28,89.747,67.28,89.747Z"/><path class="cls-9" d="M46.566,52.525s12.524.333,25.213,12.111S89.962,88.08,87.365,98.3s-18.883,10.667-18.883,10.667l-4.8-21.111,12.539-9.111Z"/><path class="cls-6" d="M39.808,93.3A38.193,38.193,0,0,1,45.6,90.436a9.9,9.9,0,0,1,3.153-.425l.6,3.111A50.742,50.742,0,0,1,59.989,97.08c4.4,2.445,3.6,4.667,3.6,4.667s2.8,2,1.6,3.333-5.8,0-5.8,0,5.8,2.445,3.4,3.889-7.68,1-7.68,1-11.5,2.222-15.3-2.222S39.808,93.3,39.808,93.3Z"/><path class="cls-2" d="M36.673,43.392l.224,9.924s1.674,2.808,6.905,3.134c3.9.243,5.078-2.012,5.078-2.012l-1.137-8.659-9.479-2.043Z"/><path class="cls-9" d="M37.41,52.525s-21.681.889-32.571,20.333-2.3,37,14.787,40.556S45.6,111.747,45.6,111.747l-4.07-22.111-8.763-1.445L24.2,76.58Z"/><path class="cls-15" d="M51.665,66.414h2.4l.989,5.11h3.354c.485-14.22-1.214-16.33-1.214-16.33L51.8,53.4A128.674,128.674,0,0,1,51.665,66.414Z"/><path d="M36.673,42.786a3.548,3.548,0,0,0,.281.95c2.109,4.9,9.183,6.769,11.434,6.93l-.645-4.887Z"/><path class="cls-2" d="M49.222,23.1S54.186,35.415,52.5,42.38s-7.39,5.932-10.807,4.626a11.368,11.368,0,0,1-5.017-3.612,4.5,4.5,0,0,1-5.326-2.034c-2.156-3.266-.878-7.057.93-7.942s3.981.55,3.981.55l-1.723-3.575S41.5,12.056,49.222,23.1Z"/><path d="M36.257,33.968s4.781,1.073,8.1-4.844,3.016-8.347,3.016-8.347l3.309,6.108s.74-4.235-.783-6.935S46.8,17.809,46.8,17.809l-10.542,2.93-2.776,9.4Z"/><path d="M48.843,38.8a.344.344,0,0,0,.323-.265c.726-2.638-.951-5.314-1.023-5.427a.316.316,0,0,0-.47-.089.4.4,0,0,0-.081.522c.016.025,1.557,2.493.929,4.774a.386.386,0,0,0,.224.469A.3.3,0,0,0,48.843,38.8Z"/><path d="M35.8,39.75a.318.318,0,0,0,.232-.1.407.407,0,0,0,.013-.531l-3.03-3.549a.314.314,0,0,0-.476-.013.4.4,0,0,0-.014.53l3.03,3.549A.321.321,0,0,0,35.8,39.75Z"/><path d="M32.6,38.806a.312.312,0,0,0,.052,0l2.088-.359a.371.371,0,0,0,.281-.428.337.337,0,0,0-.385-.313l-2.088.359a.372.372,0,0,0-.281.428A.35.35,0,0,0,32.6,38.806Z"/><path d="M44.708,42.413a5.665,5.665,0,0,0,1.979-.448.371.371,0,0,0,.212-.294.4.4,0,0,0-.125-.351l-2.987-2.607a.312.312,0,0,0-.28-.071.339.339,0,0,0-.227.194c-.036.077-.866,1.9.049,3.03A1.7,1.7,0,0,0,44.708,42.413Zm1.146-.942c-.689.2-1.653.35-2.025-.107a2.008,2.008,0,0,1-.107-1.754Z"/><path d="M50.984,28.673a.349.349,0,0,0,.332-.311.373.373,0,0,0-.274-.434l-1.975-.382a.345.345,0,0,0-.39.3.373.373,0,0,0,.274.434l1.975.382A.293.293,0,0,0,50.984,28.673Z"/><path d="M42.777,30.115a.316.316,0,0,0,.153-.041l3.238-1.824a.4.4,0,0,0,.148-.5.323.323,0,0,0-.454-.165l-3.237,1.824a.4.4,0,0,0-.149.5A.337.337,0,0,0,42.777,30.115Z"/><path d="M30.218,37.6A22.725,22.725,0,0,0,24.3,55.08c.974,10.834,10.633,9.443,12.662,5.489,3.073-5.989-.287-17.175-.287-17.175S30.749,44.5,30.218,37.6Z"/><path d="M50.984,33.748a.311.311,0,0,0,.1-.016.384.384,0,0,0,.223-.469l-.563-2.04.5-.683a.406.406,0,0,0-.047-.528.316.316,0,0,0-.475.053l-.616.839a.406.406,0,0,0-.062.347l.617,2.232A.343.343,0,0,0,50.984,33.748Z"/><path d="M45.368,34.348a.291.291,0,0,0,.1-.017.384.384,0,0,0,.223-.468l-.562-2.035.731-.949a.4.4,0,0,0-.037-.528.314.314,0,0,0-.476.041L44.5,31.5a.408.408,0,0,0-.066.354l.616,2.232A.345.345,0,0,0,45.368,34.348Z"/><path d="M55.993,93.011A.276.276,0,0,0,56.056,93l6.294-1.333a.375.375,0,0,0,.268-.439.337.337,0,0,0-.394-.3L55.93,92.267a.375.375,0,0,0-.268.439A.349.349,0,0,0,55.993,93.011Z"/><path d="M49.357,93.5a.343.343,0,0,0,.323-.269.384.384,0,0,0-.227-.466L45.948,91.61a.334.334,0,0,0-.419.253.382.382,0,0,0,.228.465l3.5,1.153A.293.293,0,0,0,49.357,93.5Z"/><path d="M63.321,101.768a.345.345,0,0,0,.324-.271.383.383,0,0,0-.23-.464l-8.926-2.869a.333.333,0,0,0-.418.257.382.382,0,0,0,.23.464l8.926,2.869A.34.34,0,0,0,63.321,101.768Z"/><path d="M59.989,105.61a.345.345,0,0,0,.324-.269.385.385,0,0,0-.229-.466l-5.594-1.821a.334.334,0,0,0-.419.254.383.383,0,0,0,.229.465l5.594,1.822A.319.319,0,0,0,59.989,105.61Z"/><path class="cls-3" d="M43.72,56.782a7.9,7.9,0,0,0,5.392-2.072.407.407,0,0,0,.013-.53.317.317,0,0,0-.477-.015c-.159.168-4,4.059-10.229.17a.32.32,0,0,0-.459.143.4.4,0,0,0,.129.511A10.587,10.587,0,0,0,43.72,56.782Z"/><path class="cls-3" d="M32.769,88.566a.349.349,0,0,0,.332-.3.376.376,0,0,0-.266-.44c-.119-.027-11.957-2.619-18.8-2.619a.377.377,0,0,0,0,.75c6.781,0,18.555,2.578,18.673,2.6A.294.294,0,0,0,32.769,88.566Z"/><path class="cls-3" d="M22.8,86.754a.33.33,0,0,0,.269-.148.409.409,0,0,0,0-.457c-.516-.739-5.117-7.171-7.546-5.733a.954.954,0,0,0-.525.9c.079,1.79,5.895,4.6,7.677,5.413A.3.3,0,0,0,22.8,86.754Zm-6.478-5.8c1.368,0,3.662,2.336,5.332,4.471-3.049-1.514-5.952-3.36-5.986-4.148,0-.024,0-.095.17-.2A.922.922,0,0,1,16.323,80.953Z"/><path class="cls-3" d="M68.461,84.763a.321.321,0,0,0,.243-.115c.04-.046,3.993-4.574,7.6-5.536a.38.38,0,0,0,.248-.453.333.333,0,0,0-.406-.277c-3.8,1.014-7.761,5.553-7.928,5.746a.4.4,0,0,0,.01.53A.317.317,0,0,0,68.461,84.763Z"/><path class="cls-3" d="M72.343,80.952a.319.319,0,0,0,.237-.108c.265-.291,2.576-2.89,2.493-4.559a1.334,1.334,0,0,0-.437-.966.751.751,0,0,0-.84-.17c-1.118.5-1.65,4.243-1.787,5.379a.386.386,0,0,0,.184.385A.3.3,0,0,0,72.343,80.952Zm1.742-5.117a.215.215,0,0,1,.131.071.56.56,0,0,1,.184.42c.04.809-.813,2.127-1.543,3.078.3-1.74.771-3.371,1.191-3.56A.08.08,0,0,1,74.085,75.835Z"/><path class="cls-16" d="M54.3,242.388a.347.347,0,0,0,.329-.292c5.291-26.285,4.622-105.282,4.573-110.33l8.22-4.066a.394.394,0,0,0,.171-.5.324.324,0,0,0-.445-.19l-8.423,4.167a.381.381,0,0,0-.2.348c.01.831.868,83.468-4.555,110.4a.379.379,0,0,0,.256.449A.311.311,0,0,0,54.3,242.388Z"/><path class="cls-16" d="M28.415,234.305a130.483,130.483,0,0,0,21.64-1.966.372.372,0,0,0,.274-.434.333.333,0,0,0-.39-.305c-.23.044-23.164,4.378-37.961.007a.334.334,0,0,0-.413.266.381.381,0,0,0,.239.459A60.53,60.53,0,0,0,28.415,234.305Z"/><path class="cls-1" d="M42.17,131.084s1.485,25.552.361,26.885-6.732,1.778-6.732,1.778l-3.2-13.111,6.809-19.279Z"/><path class="cls-16" d="M62.275,233.041a74.252,74.252,0,0,0,16.276-2.231.377.377,0,0,0,.249-.451.33.33,0,0,0-.406-.277c-.139.037-14.111,3.7-22.526,1.522a.336.336,0,0,0-.405.281.378.378,0,0,0,.252.45A26.721,26.721,0,0,0,62.275,233.041Z"/><path class="cls-11" d="M42.172,127.414S40.207,145.3,39.208,145.3,4.44,138.414,3.64,137.525s2-19.334,3.4-19.778,32.97,6,32.97,6Z"/><path class="cls-11" d="M5.838,135.747S2.759,151.3,3.5,151.969s30.888,7.778,32.3,7.778,3.609-19.333,3.609-19.333Z"/><path class="cls-3" d="M31.141,144.146a.348.348,0,0,0,.331-.3.374.374,0,0,0-.264-.442l-24.9-5.58a.333.333,0,0,0-.4.293.374.374,0,0,0,.264.441l24.9,5.58A.259.259,0,0,0,31.141,144.146Z"/><path class="cls-3" d="M38.254,129.547a2.145,2.145,0,1,0-1.918-2.134A2.037,2.037,0,0,0,38.254,129.547Zm0-3.516a1.391,1.391,0,1,1-1.243,1.382A1.32,1.32,0,0,1,38.254,126.031Z"/><path class="cls-17" d="M13.036,286.414c0,2.89,1.591,6.89,7.193,8.22s34.853,0,35.761-1.11c.485-.58.791-2.94.971-5.06a10.821,10.821,0,0,0-1.421-6.41s-1.87,3.32-19.746,4.01c-11.464.44-18.658-1.34-22.335-2.67A21.758,21.758,0,0,0,13.036,286.414Z"/><path class="cls-3" d="M28.591,274.082a.308.308,0,0,0,.094-.015c6.429-2.078,14.163-.017,14.241,0a.34.34,0,0,0,.407-.275.379.379,0,0,0-.247-.453c-.08-.023-7.985-2.129-14.589,0a.384.384,0,0,0-.23.465A.345.345,0,0,0,28.591,274.082Z"/><path class="cls-3" d="M27.48,269.435a.351.351,0,0,0,.094-.014c6.428-2.079,14.164-.017,14.241,0a.341.341,0,0,0,.407-.276.379.379,0,0,0-.247-.453c-.079-.021-7.986-2.13-14.589,0a.383.383,0,0,0-.23.465A.344.344,0,0,0,27.48,269.435Z"/><path class="cls-3" d="M71.85,269.455H83.3a.377.377,0,0,0,0-.75H71.85a.377.377,0,0,0,0,.75Z"/><path class="cls-3" d="M68.461,264.789c.034,0,6.312-.724,6.312-.724a.367.367,0,0,0,.3-.411.355.355,0,0,0-.369-.335l-6.278.722a.367.367,0,0,0-.3.411A.352.352,0,0,0,68.461,264.789Z"/><text class="cls-18" transform="translate(68.124 30.657)">?</text></svg>