<svg id="Layer_1" data-name="Layer 1" xmlns="http://www.w3.org/2000/svg" viewBox="0 0 113.213 287.059"><defs><style>.cls-1{fill:#f27e64;}.cls-2{fill:#6262c4;}.cls-3{fill:#46467f;}.cls-4{fill:#ffbf69;}.cls-5{fill:#7772d3;}.cls-6{fill:#7c6053;}.cls-7{fill:#e59e00;}.cls-8{fill:#f99931;}.cls-9{fill:#a8a4ff;}.cls-10{fill:#ffeebd;}.cls-11{fill:#fff;}</style></defs><title>Artboard 14</title><polygon class="cls-1" points="7.632 252.119 7.632 262.134 24.265 270.909 33.238 264.616 33.238 250.368 7.632 252.119"/><polygon class="cls-1" points="46.369 247.935 46.369 257.949 63.002 266.725 71.975 260.431 71.975 246.184 46.369 247.935"/><path class="cls-2" d="M48.868,283.965a3.36,3.36,0,0,1-3.222-3.319c-.3-7.292-1.868-23.6-.537-23.654,1.7-.07,18.924,3.881,18.924,3.881s.071-10.123,7.176-8.6c5.451,1.17,11.965,7.339,14.7,10.147a6.089,6.089,0,0,0,3.13,1.736c5.076,1.049,19.07,4.607,19.571,12.015.614,9.057-3.065,8.17-4.762,8.239C102.393,284.473,60.658,284.078,48.868,283.965Z"/><path class="cls-3" d="M78.541,43.716s29.326,31.034,21.885,52.231C94.932,111.6,79.3,112.486,70.6,109.206S64.88,63.03,64.88,63.03Z"/><path class="cls-4" d="M77.041,108.989S96.924,163.223,96.924,180.1s-16.2,74.5-16.2,74.5H44.282L57.718,122.558Z"/><path class="cls-4" d="M26.454,105.943s-7.441,20.992-7.441,33.686.437,43.333,0,50.774S3.693,254.6,3.693,254.6l43.973,1.858s14.312-55.546,15.809-68.24-1.685-57.777-1.685-57.777l15.251-16.451L47.666,103.737Z"/><path class="cls-3" d="M53.361,38.824s-15.089-.037-20.779,6.4-12.593,68.174-9.945,71.321C25.48,119.919,64.1,120.1,72.413,118.7l8.316-1.4s1.861-71.278-2.188-73.59C73.387,40.774,53.361,38.824,53.361,38.824Z"/><path class="cls-2" d="M50.309,108.114s0,32.828-1.313,34.36-9.552,5.327-9.552,5.327l-.3-16.489,3.283-23.855Z"/><path class="cls-5" d="M37.834,95.42S63.877,70.909,66.5,56.465s7.878,26.262,7.878,26.262L43.524,104.393Z"/><path d="M42.414,18.987s.36,6.492,3.282,6.79,7.222-3.395,7.222-3.395L50.9,15.075Z"/><path class="cls-1" d="M51.553,31.179l.091,10.183s1.862,2.911,7.824,3.342c4.441.322,5.991-.7,5.991-.7L64.8,38.857l-.655-5.025-10.779-2.27Z"/><path d="M53.361,31.562a3.367,3.367,0,0,0,.3.98c2.324,5.066,8.563,6.108,11.129,6.315l-.655-5.025Z"/><path class="cls-1" d="M66.2,10.6s5.458,12.721,3.414,19.833-8.528,5.948-12.4,4.545a12.854,12.854,0,0,1-5.662-3.8A5.478,5.478,0,0,1,45.51,29c-2.4-3.39-.884-7.255,1.193-8.129s4.532.638,4.532.638l-1.907-3.7S57.576-.872,66.2,10.6Z"/><path d="M50.9,26.976a.378.378,0,0,1-.216-.068L46.07,23.649a.375.375,0,0,1,.433-.613L51.12,26.3a.375.375,0,0,1-.217.681Z"/><path d="M46.722,26.957a.375.375,0,0,1-.1-.737l3.014-.8a.375.375,0,1,1,.193.725l-3.014.8A.358.358,0,0,1,46.722,26.957Z"/><path d="M57.718,16.016a.371.371,0,0,1-.226-.076.375.375,0,0,1-.072-.525,3.117,3.117,0,0,1,3.955-1.066.375.375,0,0,1-.349.664,2.374,2.374,0,0,0-3.009.855A.373.373,0,0,1,57.718,16.016Z"/><path d="M67.592,15.451a.38.38,0,0,1-.237-.084,2.043,2.043,0,0,0-2.283-.21.375.375,0,0,1-.385-.644,2.787,2.787,0,0,1,3.141.272.375.375,0,0,1-.236.666Z"/><path class="cls-5" d="M30.239,108.442s-16.616-.865-18.935.71S3.723,127.436,4.861,129.72L6,132.005s-4.013,11.978-2.772,12.954S35.884,148.4,39.444,147.8s8.318-38.862,8.318-38.862Z"/><path d="M65.805,26.28a.365.365,0,0,1-.1-.013.376.376,0,0,1-.265-.46c.652-2.428-1.046-6.055-1.063-6.091a.375.375,0,0,1,.678-.321c.075.159,1.832,3.915,1.109,6.607A.375.375,0,0,1,65.805,26.28Z"/><path d="M67.589,20.344a.377.377,0,0,1-.361-.273l-.658-2.33a.375.375,0,0,1,.722-.2l.658,2.331a.374.374,0,0,1-.259.462A.36.36,0,0,1,67.589,20.344Z"/><path d="M61.146,20.527a.376.376,0,0,1-.361-.273l-.658-2.33a.375.375,0,1,1,.722-.2l.658,2.33a.376.376,0,0,1-.259.463A.4.4,0,0,1,61.146,20.527Z"/><path d="M66.931,12.447s-.753-1.016-3.294-1.011a5.494,5.494,0,0,0-4.008,1.807s-.212,4.606-3.647,6.909-4.747,1.354-4.747,1.354l-2.514-.871-1.87-3.645L54.03,9.114l8.627-3.683,4.274,4.753Z"/><path d="M63.277,29.237a3.8,3.8,0,0,1-3.51-2.08.375.375,0,1,1,.676-.324,3.069,3.069,0,0,0,2.994,1.649.378.378,0,0,1,.411.335.374.374,0,0,1-.334.411A2.369,2.369,0,0,1,63.277,29.237Z"/><path class="cls-5" d="M10.072,286.605a3.36,3.36,0,0,1-3.222-3.32c-.3-7.291-1.868-23.6-.537-23.653,1.7-.07,18.923,3.881,18.923,3.881s.072-10.123,7.176-8.6c5.452,1.17,11.966,7.339,14.7,10.147a6.09,6.09,0,0,0,3.129,1.736c5.077,1.049,19.07,4.607,19.572,12.015.614,9.057-3.065,8.17-4.762,8.239C63.6,287.113,21.862,286.718,10.072,286.605Z"/><path class="cls-6" d="M43.835,24.972a13.165,13.165,0,0,1-2.9-8.822l.072-.508s-2.954-.322-1.969-4.261S45.046,2.189,52.884.22s14.047,9.964,14.047,9.964-6.555-.343-11.479,3.381a25.13,25.13,0,0,0-6.731,7.07Z"/><rect class="cls-7" x="54.185" y="84.94" width="48.829" height="7.649" rx="1.736" ry="1.736"/><path class="cls-1" d="M47.666,88.23l-1.681,20.912s11.291,3.991,18.882,3.6,20.45-6.462,18.5-8.746c-1.587-1.856-4.269-.479-4.269-.479s6.379-2.747,2.6-4.367-15.457,1.174-15.457,1.174L54.215,98.2l-.854-9.972Z"/><rect class="cls-8" x="60.521" y="65.562" width="39.795" height="11.885" rx="1.736" ry="1.736"/><rect class="cls-4" x="52.216" y="84.94" width="48.829" height="7.649" rx="1.736" ry="1.736"/><rect class="cls-9" x="57.889" y="77.291" width="45.716" height="7.649" rx="1.736" ry="1.736"/><rect class="cls-10" x="52.873" y="92.236" width="50.552" height="7.649" rx="1.736" ry="1.736"/><rect class="cls-9" x="63.678" y="58.626" width="32.499" height="7.101" rx="1.736" ry="1.736"/><rect class="cls-11" x="55.92" y="77.291" width="45.716" height="7.649" rx="1.736" ry="1.736"/><rect class="cls-8" x="64.788" y="48.34" width="35.2" height="10.286" rx="1.736" ry="1.736"/><rect class="cls-4" x="58.552" y="65.562" width="39.795" height="11.885" rx="1.736" ry="1.736"/><rect class="cls-11" x="50.904" y="92.236" width="50.551" height="7.649" rx="1.736" ry="1.736"/><path d="M69.074,107.123a.375.375,0,0,1-.009-.75c2.152-.047,11.041-3.579,11.131-3.614a.375.375,0,1,1,.277.7c-.371.148-9.105,3.618-11.391,3.668Z"/><path class="cls-3" d="M42.414,40.176S-3.31,56.527.191,88.23s47.475,24.7,47.475,24.7l.563-26.891-13.459-6.2Z"/><path class="cls-1" d="M109.18,88.23s6.566-3.1,2.943-5.39c-3.079-1.949-17.967,2.136-19.138,3.67-1.313,1.72,3.939,3.658,3.939,3.658s-7.441.773-7.222,3.451,6.347,2.328,6.347,2.328-5.69.845-3.721,4.551,16.633.277,18.165-1.634-.875-2.917-.875-2.917a5.251,5.251,0,0,0,2.517-4C112.463,89.074,109.18,88.23,109.18,88.23Z"/><rect class="cls-11" x="61.708" y="58.626" width="32.499" height="7.101" rx="1.736" ry="1.736"/><rect class="cls-4" x="62.818" y="48.34" width="35.2" height="10.286" rx="1.736" ry="1.736"/><path class="cls-11" d="M36.083,133.219,5.988,132.38a.375.375,0,1,1,.021-.75l30.085.839a.375.375,0,0,1-.011.75Z"/><path d="M98.346,89.517a.375.375,0,0,1-.046-.747l9.3-1.163a.379.379,0,0,1,.419.326.373.373,0,0,1-.326.418l-9.3,1.163A.371.371,0,0,1,98.346,89.517Z"/><path d="M96.049,96.452a.375.375,0,0,1-.005-.75l11.6-.13a.375.375,0,1,1,.009.75l-11.6.13Z"/><path class="cls-3" d="M50.9,252.494a.342.342,0,0,1-.089-.01.376.376,0,0,1-.276-.453c.132-.542,13.176-54.362,12.764-66.149-.414-11.842-.82-48.305-.824-48.672a.372.372,0,0,1,.176-.321l8.813-5.525a.374.374,0,1,1,.4.634l-8.635,5.414c.034,3.011.424,37.081.822,48.445.415,11.888-12.245,64.133-12.785,66.351A.375.375,0,0,1,50.9,252.494Z"/><path class="cls-4" d="M44.581,85.315a.363.363,0,0,1-.112-.017c-.166-.052-16.635-5.2-23.474-6.047a.375.375,0,1,1,.092-.744c6.906.851,23.44,6.023,23.606,6.075a.375.375,0,0,1-.112.733Z"/><path class="cls-4" d="M31.322,81.491a.373.373,0,0,1-.208-.063C29,80.014,22.125,75.252,22.66,73.355c.136-.484.621-.745,1.44-.777,4.987-.187,7.478,8.08,7.582,8.432a.376.376,0,0,1-.36.481Zm-7.055-8.166-.138,0c-.509.021-.72.137-.747.231-.245.868,3.4,3.971,7.213,6.61C29.777,78.017,27.608,73.325,24.267,73.325Z"/><path class="cls-4" d="M61.383,45.264c-5.437,0-11.013-3.422-11.272-3.583a.375.375,0,1,1,.4-.637c.068.042,6.862,4.208,12.5,3.353a.375.375,0,1,1,.113.741A11.568,11.568,0,0,1,61.383,45.264Z"/><rect class="cls-9" x="65.032" y="40.475" width="31.865" height="7.928" rx="1.652" ry="1.652"/><rect class="cls-11" x="63.063" y="40.475" width="31.865" height="7.928" rx="1.652" ry="1.652"/><path class="cls-4" d="M40.934,16.525a.375.375,0,0,1-.325-.561l1.479-2.585a.375.375,0,0,1,.651.372l-1.478,2.585A.377.377,0,0,1,40.934,16.525Z"/></svg>