<svg id="Layer_1" data-name="Layer 1" xmlns="http://www.w3.org/2000/svg" viewBox="0 0 168.371 262.702"><defs><style>.cls-1{fill:#6262c4;}.cls-2{fill:#7772d3;}.cls-3{fill:#ffbf69;}.cls-4{fill:#fca397;}.cls-5{fill:#f49282;}.cls-6{fill:#ffab50;}.cls-7{fill:#fff;}.cls-8{fill:#f7734f;}.cls-9{fill:#7c6053;}.cls-10{fill:#46467f;}.cls-11{fill:#2f2f68;}</style></defs><title>Artboard 4</title><path class="cls-1" d="M145.622,261.324a2.176,2.176,0,0,1-2.176-2.176V149.807H147.8V259.148A2.177,2.177,0,0,1,145.622,261.324Z"/><path class="cls-2" d="M118.52,135.439h43.81a6.041,6.041,0,0,1,6.041,6.041v4.9a6.041,6.041,0,0,1-6.041,6.041H118.52a0,0,0,0,1,0,0v-16.98A0,0,0,0,1,118.52,135.439Z"/><path class="cls-3" d="M151.064,76.082s8.327,20.825,0,31.927a26.485,26.485,0,0,1-20.572,10.7l-4.814-12.384Z"/><polygon class="cls-4" points="81.578 218.816 81.462 232.484 108.74 229.885 108.74 218.816 81.578 218.816"/><polygon class="cls-5" points="39.404 217.032 39.288 230.701 66.566 228.101 66.566 217.032 39.404 217.032"/><path class="cls-6" d="M35.92,228.905S1.96,251.237.327,255.929s3.265,6.552,5.551,6.765,59.179-3.818,59.179-3.818l4.824-17.322s-.8-14.676-1.382-15.112-31.273.031-31.273.031Z"/><path class="cls-3" d="M80,226.442S55.29,248.825,54.422,253.417s1.744,6.877,3.377,7.53,33.875.327,42.734,0,10.424-6.256,11.275-11.455-2.415-23.019-2.415-23.019Z"/><path class="cls-7" d="M93.5,241.474a.35.35,0,0,1-.078-.008l-15.645-3.344a.367.367,0,0,1-.008-.716l16.7-3.966-13.019-.588a.368.368,0,0,1-.351-.384.352.352,0,0,1,.384-.351l15.64.707a.367.367,0,0,1,.068.724l-17.668,4.2,14.054,3a.368.368,0,0,1-.077.727Z"/><path class="cls-7" d="M36.574,241.474H19.961a.367.367,0,0,1,0-.734H35.024l-6.236-3.132a.367.367,0,0,1,.151-.7l11.841-.43-9.094-4.535a.368.368,0,0,1,.328-.659L42.4,236.467a.367.367,0,0,1-.15.7L30.4,237.6l6.34,3.184a.367.367,0,0,1-.165.695Z"/><path class="cls-7" d="M4.008,254.908a.368.368,0,0,1-.02-.735L54.4,251.3a.39.39,0,0,1,.388.347.368.368,0,0,1-.347.387L4.029,254.908Z"/><path class="cls-7" d="M91.493,251.362c-13.158,0-31.185-.446-34.2-.523a.367.367,0,0,1,.01-.734c18.409.47,46.34.87,47.879.043a33.978,33.978,0,0,0,4.7-3.305.368.368,0,1,1,.475.561,34.178,34.178,0,0,1-4.828,3.392C104.737,251.221,98.882,251.362,91.493,251.362Z"/><path class="cls-8" d="M63.224,118.023S33.182,134.786,28.61,143.6s2.506,80.657,2.506,80.657l39.532-3.07,1.393-38.4L95.116,122.05Z"/><path class="cls-8" d="M132.451,109.37s3.756,19.048,3.756,25.416-19.091,23.184-19.091,23.184l-.628,63.35H72.2s-3.441-65.635-3.353-72.33,28.007-33.658,28.007-33.658Z"/><path class="cls-4" d="M23.385,53.639a19.227,19.227,0,0,0,7.731,8.654c5.864,3.615,9.413,3.918,9.413,3.918l5.551-5.224L34.733,38.234Z"/><polygon class="cls-1" points="16.72 19.252 0.3 52.7 22.271 62.006 37.945 28.366 16.72 19.252"/><polygon class="cls-2" points="20.983 21.062 4.563 54.509 26.534 63.816 42.208 30.175 20.983 21.062"/><path class="cls-4" d="M46.08,55.109s-2.775-10.776-3.918-13.062-8.654-7.719-10.613-6.472,3.374,6.864,3.374,6.864-.6,8.915,1.2,12.67,6.2,5.061,6.2,5.061Z"/><path class="cls-9" d="M48.377,48.55,34.923,69.041s6.028,14.756,21.77,20.9c8.925,3.483,20.246,1.524,20.246,1.524V112.8a123.079,123.079,0,0,0,33.226,2.83c19.021-.87,23.592-5.007,23.592-5.007s3.484-65.962,0-68.574-20.993-5.66-33.9-2.395-14.744,8.055-14.744,8.055-9.7,7.184-19.278,8.273S48.377,48.55,48.377,48.55Z"/><path d="M102.488,16.359S95.225,7.377,98.273,3.813s7.758,0,7.758,0S106.291-.4,110.99.032s7.53,5.442,7.53,5.442,4.134-4.136,6.965,0,.871,10.885.871,10.885,3.265-.484,2.394,3.35-6.006,7.786-6.006,7.786Z"/><path class="cls-4" d="M118.384,30.5l.136,10.129s-1.787,2.937-7.706,3.5c-4.41.419-5.974-.558-5.974-.558l.546-5.139.54-5.011,10.668-2.5Z"/><path d="M116.594,30.921a3.356,3.356,0,0,1-.281.982c-2.2,5.09-8.38,6.265-10.927,6.527l.54-5.011Z"/><path class="cls-4" d="M103.355,10.362s-5.144,12.771-2.953,19.8,8.613,5.725,12.436,4.244a12.789,12.789,0,0,0,5.547-3.9,5.447,5.447,0,0,0,5.959-2.306c2.316-3.425.719-7.235-1.367-8.058s-4.492.736-4.492.736l1.813-3.721S111.68-1.239,103.355,10.362Z"/><path d="M118.927,26.3a.368.368,0,0,1-.219-.663l4.52-3.343a.368.368,0,0,1,.437.591l-4.519,3.343A.366.366,0,0,1,118.927,26.3Z"/><path d="M123.086,26.189a.384.384,0,0,1-.087-.011l-3.015-.733a.367.367,0,1,1,.174-.714l3.015.733a.368.368,0,0,1-.087.725Z"/><path d="M111.644,16.09a.368.368,0,0,1-.346-.244,2.363,2.363,0,0,0-2.6-1.715.372.372,0,0,1-.425-.3.366.366,0,0,1,.294-.426A3.1,3.1,0,0,1,111.99,15.6a.369.369,0,0,1-.223.47A.374.374,0,0,1,111.644,16.09Z"/><path d="M102.076,15.21a.367.367,0,0,1-.238-.647c.387-.329,1.568-1.33,2.043-.794a.367.367,0,0,1-.407.586,3.367,3.367,0,0,0-1.161.768A.36.36,0,0,1,102.076,15.21Z"/><path d="M103.911,24.824a.365.365,0,0,1-.292-.145c-1.594-2.089,1.512-5.439,1.645-5.581a.367.367,0,0,1,.535.5c-.786.839-2.607,3.308-1.6,4.633a.367.367,0,0,1-.07.514A.362.362,0,0,1,103.911,24.824Z"/><path d="M102.186,20.077a.363.363,0,0,1-.092-.012.367.367,0,0,1-.263-.448l.6-2.332a.367.367,0,0,1,.711.184l-.6,2.332A.367.367,0,0,1,102.186,20.077Z"/><path d="M108.6,20.116a.33.33,0,0,1-.092-.013.366.366,0,0,1-.263-.447l.6-2.331a.367.367,0,0,1,.711.183l-.6,2.332A.369.369,0,0,1,108.6,20.116Z"/><path d="M102.328,13.238a4.275,4.275,0,0,1,3.6-2.1,5.463,5.463,0,0,1,4.026,1.708s-1.051,4.27,2.415,6.484,6.117,1.546,6.117,1.546l2.48-.922,1.779-3.667-7.315-7.672-9.4-4.8-4.7,4.381Z"/><path d="M106.6,28.825c-.1,0-.15,0-.154,0a.366.366,0,0,1-.335-.4.357.357,0,0,1,.394-.337,3.058,3.058,0,0,0,2.946-1.711.368.368,0,0,1,.67.3A3.8,3.8,0,0,1,106.6,28.825Z"/><path class="cls-4" d="M108.6,98s-11.849,1.742-14.244,2.612-4.136,6.314-4.136,6.314-7.4,5.442-7.619,6.313,4.789,6.531,4.789,6.531l15.452.979s10.74-1.2,13.754-9.034S108.6,98,108.6,98Z"/><path class="cls-3" d="M123.086,38.992a75.807,75.807,0,0,0-6.492,27.219c-.933,16.164,4.593,25.144,4.593,25.144l6.04-7.715a70.605,70.605,0,0,1-.274-23c1.96-12.409,5.5-18.594,5.5-18.594S127.652,37.354,123.086,38.992Z"/><path d="M86.067,115.7a.372.372,0,0,1-.22-.073.368.368,0,0,1-.075-.514c.155-.208,3.862-5.121,9.229-6.878a.367.367,0,0,1,.229.7c-5.142,1.685-8.832,6.571-8.868,6.62A.368.368,0,0,1,86.067,115.7Z"/><path d="M90.591,119.074a.368.368,0,0,1-.295-.587c.156-.208,3.863-5.12,9.231-6.878a.367.367,0,1,1,.228.7c-5.149,1.686-8.833,6.57-8.869,6.62A.367.367,0,0,1,90.591,119.074Z"/><path class="cls-3" d="M75.143,95.641a.368.368,0,0,1-.367-.346c-.65-11.2,4.374-27.559,4.425-27.723a.367.367,0,1,1,.7.218c-.05.162-5.034,16.394-4.392,27.462a.368.368,0,0,1-.345.389Z"/><path class="cls-9" d="M133.757,42.047s22.206,15.239,20.9,38.532-36.136,37.444-36.136,37.444l-13.988-22.3,21.146-16.57Z"/><path class="cls-3" d="M108.846,44.617a17.865,17.865,0,0,1-5.36-.815.368.368,0,0,1,.24-.7,17.422,17.422,0,0,0,7.041.656c3.829-.488,8.489-3.415,8.536-3.444a.367.367,0,0,1,.393.621c-.2.124-4.846,3.043-8.835,3.552A16.054,16.054,0,0,1,108.846,44.617Z"/><path d="M38.6,57.653a.362.362,0,0,1-.236-.086c-5.785-4.873-3.883-14.781-3.8-15.2A.364.364,0,0,1,35,42.078a.369.369,0,0,1,.288.433c-.02.1-1.9,9.9,3.55,14.494a.367.367,0,0,1-.236.648Z"/><path class="cls-10" d="M87.388,118.023H34.978L24.269,88.142a1.5,1.5,0,0,1,1.416-2.011H74.9a1.5,1.5,0,0,1,1.416,1Z"/><path class="cls-2" d="M101.811,123.465H35.576a2.177,2.177,0,0,1-2.177-2.176V120.2a2.177,2.177,0,0,1,2.177-2.177h66.235a2.721,2.721,0,0,1,0,5.442Z"/><path d="M90.591,106.689a.367.367,0,0,1-.191-.681l6.934-4.245a.367.367,0,1,1,.383.627l-6.934,4.245A.372.372,0,0,1,90.591,106.689Z"/><path class="cls-3" d="M67.934,65.77a1.641,1.641,0,0,1-.18-.01,1.708,1.708,0,0,1-1.212-.73c-1.614-2.184-.356-8.934-.3-9.22a.368.368,0,0,1,.323-.3.363.363,0,0,1,.377.223c.335.8,3.232,7.839,1.929,9.583A1.119,1.119,0,0,1,67.934,65.77Zm-1.182-8.523c-.321,2.326-.587,6.037.381,7.347a.99.99,0,0,0,.7.436.438.438,0,0,0,.444-.151C68.968,63.957,67.846,60.117,66.752,57.247Z"/><path class="cls-3" d="M106.476,95.641a.367.367,0,0,1-.255-.631c.127-.124,12.86-12.4,19.27-16.177a.367.367,0,1,1,.373.633c-6.336,3.729-19.005,15.949-19.133,16.071A.361.361,0,0,1,106.476,95.641Z"/><path class="cls-3" d="M124.881,80.714a.368.368,0,0,1-.337-.513c.139-.321,3.428-7.874,6.266-8.676a1.681,1.681,0,0,1,1.492.241A1.423,1.423,0,0,1,132.95,73c-.065,2.644-7.074,7.15-7.872,7.655A.369.369,0,0,1,124.881,80.714Zm6.448-8.53a1.166,1.166,0,0,0-.319.048c-1.764.5-4.055,4.594-5.261,7.1,2.444-1.664,6.426-4.714,6.466-6.351a.691.691,0,0,0-.335-.617A.936.936,0,0,0,131.329,72.184Z"/><path class="cls-2" d="M36.588,109.737a.367.367,0,0,1-.346-.245L29.9,91.477a.367.367,0,0,1,.693-.244l6.346,18.014a.368.368,0,0,1-.225.469A.373.373,0,0,1,36.588,109.737Z"/><path class="cls-3" d="M102.075,39.163s-9.865,2.127-11.4,3.606l-1.541,1.479A49.528,49.528,0,0,0,80.748,60.17c-2.734,9.192-3.024,14.345-3.024,14.345S98.764,39.9,102.075,39.163Z"/><path class="cls-11" d="M70.882,195.858a.376.376,0,0,1-.373-.341c-.167-1.8-4.063-44.144-3.412-49.349.66-5.283,17.044-23.28,17.74-24.044a.376.376,0,0,1,.555.506c-.17.186-16.92,18.583-17.551,23.632-.64,5.125,3.374,48.746,3.414,49.187a.373.373,0,0,1-.339.407Z"/><path class="cls-11" d="M107.425,160.544a2.964,2.964,0,0,1-1.953-.489,1.162,1.162,0,0,1-.3-1.218c.9-3.534,10.891-1.479,12.027-1.233a.375.375,0,0,1,.042.721C115.939,158.769,110.547,160.544,107.425,160.544Zm2.855-2.992c-2.269,0-4.108.384-4.385,1.471-.083.325.035.434.086.48.957.886,5.951-.287,9.642-1.44A32.729,32.729,0,0,0,110.28,157.552Z"/></svg>