<svg width="268" height="29" viewBox="0 0 268 29" fill="none" xmlns="http://www.w3.org/2000/svg">
<path d="M1 18.7452L18.5677 1L36.1354 18.7452L54.058 1L71.8032 18.7452L89.7258 1L107.294 18.7452L125.039 1L142.784 18.7452L160.529 1L178.274 18.7452L196.019 1L213.765 18.7452L231.51 1L249.255 18.7452L267 1" stroke="#272F54"/>
<path d="M1 27.6178L18.5677 9.87259L36.1354 27.6178L54.058 9.87259L71.8032 27.6178L89.7258 9.87259L107.294 27.6178L125.039 9.87259L142.784 27.6178L160.529 9.87259L178.274 27.6178L196.019 9.87259L213.765 27.6178L231.51 9.87259L249.255 27.6178L267 9.87259" stroke="#272F54"/>
<circle cx="36.3129" cy="8.09808" r="2.83923" fill="#272F54"/>
<circle cx="18.5677" cy="21.2295" r="2.83923" fill="#272F54"/>
<circle cx="71.8031" cy="8.09808" r="2.83923" fill="#272F54"/>
<circle cx="54.058" cy="21.2295" r="2.83923" fill="#272F54"/>
<circle cx="107.293" cy="8.09808" r="2.83923" fill="#272F54"/>
<circle cx="89.5482" cy="21.2295" r="2.83923" fill="#272F54"/>
<circle cx="178.274" cy="8.09808" r="2.83923" fill="#272F54"/>
<circle cx="160.529" cy="21.2295" r="2.83923" fill="#272F54"/>
<circle cx="249.255" cy="8.09808" r="2.83923" fill="#272F54"/>
<circle cx="231.51" cy="21.2295" r="2.83923" fill="#272F54"/>
<circle cx="142.784" cy="8.09808" r="2.83923" fill="#272F54"/>
<circle cx="125.038" cy="21.2295" r="2.83923" fill="#272F54"/>
<circle cx="213.764" cy="8.09808" r="2.83923" fill="#272F54"/>
<circle cx="196.019" cy="21.2295" r="2.83923" fill="#272F54"/>
</svg>
