<svg width="145" height="17" viewBox="0 0 145 17" fill="none" xmlns="http://www.w3.org/2000/svg">
<path d="M1 10.6925L10.4443 1.15277L19.8886 10.6925L29.5237 1.15277L39.0634 10.6925L48.6985 1.15277L58.1428 10.6925L67.6825 1.15277L77.2221 10.6925L86.7618 1.15277L96.3015 10.6925L105.841 1.15277L115.381 10.6925L124.921 1.15277L134.46 10.6925L144 1.15277" stroke="#272F54"/>
<path d="M1 15.4623L10.4443 5.92262L19.8886 15.4623L29.5237 5.92262L39.0634 15.4623L48.6985 5.92262L58.1428 15.4623L67.6825 5.92262L77.2221 15.4623L86.7618 5.92262L96.3015 15.4623L105.841 5.92262L115.381 15.4623L124.921 5.92262L134.46 15.4623L144 5.92262" stroke="#272F54"/>
<circle cx="19.9844" cy="4.96866" r="1.52635" fill="#272F54"/>
<circle cx="10.4443" cy="12.028" r="1.52635" fill="#272F54"/>
<circle cx="39.0635" cy="4.96866" r="1.52635" fill="#272F54"/>
<circle cx="29.5234" cy="12.028" r="1.52635" fill="#272F54"/>
<circle cx="58.1426" cy="4.96866" r="1.52635" fill="#272F54"/>
<circle cx="48.6025" cy="12.028" r="1.52635" fill="#272F54"/>
<circle cx="96.3017" cy="4.96866" r="1.52635" fill="#272F54"/>
<circle cx="86.7617" cy="12.028" r="1.52635" fill="#272F54"/>
<circle cx="134.46" cy="4.96866" r="1.52635" fill="#272F54"/>
<circle cx="124.921" cy="12.028" r="1.52635" fill="#272F54"/>
<circle cx="77.2226" cy="4.96866" r="1.52635" fill="#272F54"/>
<circle cx="67.6826" cy="12.028" r="1.52635" fill="#272F54"/>
<circle cx="115.381" cy="4.96866" r="1.52635" fill="#272F54"/>
<circle cx="105.841" cy="12.028" r="1.52635" fill="#272F54"/>
</svg>
