<svg id="Layer_1" data-name="Layer 1" xmlns="http://www.w3.org/2000/svg" viewBox="0 0 94.3 221.9"><defs><style>.cls-1{fill:#f48462;}.cls-2{fill:#3f9e97;}.cls-3{fill:#a76fa8;}.cls-4{fill:#286c7c;}.cls-5{fill:#ffba57;}.cls-6{fill:#fff;}.cls-7{fill:#9bccc7;}.cls-8{fill:#ffeeeb;}</style></defs><title>sdf </title><path class="cls-1" d="M74.3,47.7a14.4,14.4,0,0,1,0,11.1c-2.3,5.2-8.1,1.5-8.1,1.5V50.7Z"/><path class="cls-1" d="M54.1,91s8.1,1.7,14.6-2.5,4.8-29.7,4.8-29.7H63.4l-5.9,14Z"/><polygon class="cls-1" points="53.9 196.8 53.9 204.9 69.3 204.4 69.3 196.8 53.9 196.8"/><polygon class="cls-1" points="18.4 195.8 18.4 204 32.7 203.4 32.7 195.8 18.4 195.8"/><path class="cls-2" d="M49.3,105.8S60.4,123.4,67,151.5a314.9,314.9,0,0,1,7.3,46.9h-26s-2.8-20.9-3.6-29.2a192.6,192.6,0,0,0-3.3-19.4s-3.6,47.8-4.4,48.6-25.7.2-25.5-.9,5.3-76.4,6-81.6C19.5,99.8,49.3,105.8,49.3,105.8Z"/><path class="cls-3" d="M36.2,217.5c0,1.5-.5,3.1-1.5,3.5s-9,1.3-16,.7-8.1-1.1-8.6-1.7.2-1.8.7-3.2.1-.1.1-.2l.8-1.8a10,10,0,0,1,.8-1.4,25,25,0,0,0,2.5-4.1c.5-1.5,1.2-4.5,1.7-6a2.7,2.7,0,0,1,1.7-1.7s13.8-1,14.8-.1,1.5,7.6,1.5,8.6v1a28.8,28.8,0,0,0,1.1,4.5l.3,1C36.1,217,36.2,217.3,36.2,217.5Z"/><path class="cls-3" d="M94,220.5c-.9.3-40.1,1.4-41,0a11.7,11.7,0,0,1-.6-3.8c-.4-4.4-.4-11-.4-11s-.2-2.2-.2-3.3,18.9-.6,18.9-.6L83,211.5a23.3,23.3,0,0,1,7,0c2,.3,3.2,2.7,3.9,4.9S94.5,220.3,94,220.5Z"/><path class="cls-4" d="M94,220.5c-.9.3-40.1,1.4-41,0a11.7,11.7,0,0,1-.6-3.8c7.4.5,25.8,1.5,41.5-.3C94.4,218.4,94.5,220.3,94,220.5Z"/><path class="cls-4" d="M36.2,217.5c0,1.5-.5,3.1-1.5,3.5s-9,1.3-16,.7-8.1-1.1-8.6-1.7.2-1.8.7-3.2c6.3.5,17.5.9,25-1.2l.3,1C36.1,217,36.2,217.3,36.2,217.5Z"/><path class="cls-5" d="M41.4,150.1a.3.3,0,0,1-.3-.3c0-.1.8-10.4,1-14.9s.3-6.7.3-6.8,0-.2.1-.2l8.5-3.8c.1,0,.3,0,.3.2s0,.3-.1.4L43,128.3c-.1.6-.1,2.8-.3,6.6s-1,14.9-1,15Z"/><path class="cls-5" d="M18.8,208.7c-.2,0-.3-.1-.3-.2s0-.3.2-.3,5.6-1.5,8.4-1l1.7.2c-1.6-1.1-4.6-3-6.5-2.2-.2.1-.4,0-.4-.2a.2.2,0,0,1,.1-.3c2.9-1.3,7.8,2.8,8,3s.2.2.1.3-.2.2-.3.2l-2.8-.5c-2.7-.4-8.1,1-8.2,1Z"/><path class="cls-5" d="M80.1,209.4l-7.1-.7-.2-.2v-.3l2.5-2.8c.1-.1.3-.2.4-.1a.3.3,0,0,1,0,.4l-2.1,2.5,6.5.7c.1,0,.3.1.2.3A.2.2,0,0,1,80.1,209.4Z"/><path class="cls-5" d="M29.9,65.9s-7.7,0-11.8,4-.6,43.4-.6,43.4,14.2,1.7,22,0a38.6,38.6,0,0,0,12.7-5.1s-2.5-36.5-4.7-40.4S29.9,65.9,29.9,65.9Z"/><path class="cls-1" d="M28.4,63.1V68a7.5,7.5,0,0,0,4.3,1.6A4.7,4.7,0,0,0,37,67.1V61.3Z"/><path d="M28.4,62.9s1.9,4,5.6,3.4,2.9-4.6,2.9-4.6Z"/><path class="cls-1" d="M38.1,48.7s1.9,8.8-.9,13.1-6.6,3.1-8.3,1.8a7.5,7.5,0,0,1-2.8-4.1s-3.1.7-4.2-1.8a3.5,3.5,0,0,1,2.4-5c1.5-.1,1.7.1,1.7.1L25.5,50S34.8,39.3,38.1,48.7Z"/><path class="cls-1" d="M36.7,52.9s4.7-2.1,5.1,1.5-4.5,4.4-4.5,4.4Z"/><path d="M39.1,56.6H39a.2.2,0,0,1-.1-.4l1.5-2.7c.1-.2.2-.2.4-.1s.2.2.1.4l-1.5,2.7Z"/><path d="M25.6,57h-.2l-2.5-2a.3.3,0,0,1,0-.4.2.2,0,0,1,.4-.1l2.4,2c.2.1.2.3.1.5Z"/><path d="M23.3,57.4h-.2c-.1-.2-.1-.3.1-.4l1.4-1.1H25a.2.2,0,0,1-.1.4l-1.4,1.1C23.5,57.4,23.4,57.4,23.3,57.4Z"/><path d="M40.9,55.8H39.6a.3.3,0,1,1,0-.6h1.3a.3.3,0,0,1,0,.6Z"/><path d="M30.6,54.7q-.2,0-.3-.3V52.9c0-.2.1-.3.2-.3a.5.5,0,0,1,.4.2v1.5a.5.5,0,0,1-.2.4Z"/><path d="M36.4,54.1c-.1,0-.2-.1-.2-.3L36,52.3c0-.2.1-.3.2-.3a.5.5,0,0,1,.4.2v1.5a.5.5,0,0,1-.2.4Z"/><path d="M34,58.2c-.2-.1-.3-.2-.3-.4a9,9,0,0,0-.5-4.1.2.2,0,0,1,.1-.3c.2-.1.3,0,.4.1a8.7,8.7,0,0,1,.5,4.4C34.2,58.1,34.1,58.2,34,58.2Z"/><path d="M36.7,51.3h-.1a2.7,2.7,0,0,0-1.5-.1c-.1,0-.3-.1-.3-.2s0-.3.2-.4a2.7,2.7,0,0,1,1.9.2.2.2,0,0,1,.1.3Z"/><path d="M29.4,52c-.1,0-.2,0-.2-.1a.3.3,0,0,1,0-.4,3.2,3.2,0,0,1,1.7-.7.3.3,0,0,1,.3.3c.1.1-.1.3-.2.3a3.3,3.3,0,0,0-1.4.5Z"/><path d="M27.4,53.6a4.9,4.9,0,0,0,2.1-3.8c-.1-2.3-.6-2.9-.6-2.9a7.3,7.3,0,0,0,5.2.3c3.2-.9,5-5.4,3.2-6.6s-6.8.5-6.8.5a10.7,10.7,0,0,0-8.3,3.7c-3.3,4.1.4,8.8.4,8.8S23.6,51.5,27.4,53.6Z"/><path d="M33.5,60.6a3.7,3.7,0,0,1-2.4-1.1.3.3,0,1,1,.4-.4c.1,0,1.3,1.3,2.5.9s.3,0,.3.2a.2.2,0,0,1-.1.3Z"/><path d="M36.4,43.4a9.7,9.7,0,0,1,2.7,4.4,11.5,11.5,0,0,1,0,4.5h-.5s-1.1-5.9-3-6.4S36.4,43.4,36.4,43.4Z"/><path class="cls-5" d="M24.6,66.7s-12.9,1-18.6,10A39.4,39.4,0,0,0,0,93.8L20.2,91Z"/><path class="cls-5" d="M46.2,91l10.6.5.7-18.7s-10.4-6.6-14.6-7.1S46.2,91,46.2,91Z"/><path class="cls-1" d="M2.5,93.5s-1.2,14.9,9.8,13.4c12.5-1.8,19-27.6,19-27.6L35.1,77s-.7,2.9,2.2,1.3a4.2,4.2,0,0,0,2.4-4.5l-3.5-6s5.2-4.8,3.7-5.1-9.7,4.6-9.7,4.6.4-3-1.3-2.5-2.5,6-2.5,6L6.7,92.5Z"/><path d="M35.1,77.3h-.3v-.4l1.4-1.9c.1-.1.3-.2.4-.1s.2.3.1.4l-.8,1,1.1-.4a.2.2,0,0,1,.4.1c.1.1,0,.3-.2.4l-2,.9Z"/><path d="M27.4,69.9h-.3c-.1-.2,0-.3.1-.4l3.6-3a.3.3,0,0,1,.4,0c.1.2.1.4-.1.5l-3.6,2.9A.1.1,0,0,1,27.4,69.9Z"/><path d="M34.9,69a.2.2,0,0,1-.2-.2.3.3,0,0,1,0-.4l1.4-.9h.4c.1.2,0,.3-.1.4l-1.3.9Z"/><path class="cls-5" d="M18.8,124.5h-.3c-.1-.1,0-.3.1-.4a14.7,14.7,0,0,0,5.5-7.4c0-.2.2-.3.3-.2s.3.2.2.3a14.2,14.2,0,0,1-5.7,7.8Z"/><rect class="cls-4" x="66.5" y="45" width="22.2" height="13.18" rx="1.9" ry="1.9" transform="translate(1.4 -2) rotate(1.5)"/><rect class="cls-6" x="67.6" y="46" width="18" height="11.06" rx="1.6" ry="1.6" transform="translate(1.4 -2) rotate(1.5)"/><path class="cls-2" d="M87.9,51.9a.9.9,0,0,1-.8.8.8.8,0,0,1-.8-.9.9.9,0,0,1,.8-.8A.8.8,0,0,1,87.9,51.9Z"/><path class="cls-1" d="M63.4,59.6s-1.6-5.7-.5-7.6,3.9-3.8,6.2-3.3-1.6,3.8-1.6,3.8,2.5,5.5.9,8S63.4,59.6,63.4,59.6Z"/><path d="M67.5,61.6c-.1,0-.3,0-.3-.1s0-.4.2-.4,1.2-3.8,1-5.1,0-.3.2-.3.3.1.3.2,1,4.9-1.3,5.7Z"/><rect class="cls-7" x="36.6" width="51.9" height="28.54" rx="3.6" ry="3.6"/><polygon class="cls-7" points="65.5 25 70.7 38.8 54.3 26.5 65.5 25"/><path class="cls-8" d="M81.4,11.6H43.6a1.3,1.3,0,0,1-1.3-1.3,1.3,1.3,0,0,1,1.3-1.4H81.4a1.4,1.4,0,0,1,1.4,1.4A1.3,1.3,0,0,1,81.4,11.6Z"/><path class="cls-8" d="M81.4,19.6H43.6a1.3,1.3,0,0,1-1.3-1.3,1.3,1.3,0,0,1,1.3-1.4H81.4a1.4,1.4,0,0,1,1.4,1.4A1.3,1.3,0,0,1,81.4,19.6Z"/></svg>