<svg width="144" height="39" viewBox="0 0 144 39" fill="none" xmlns="http://www.w3.org/2000/svg">
<line y1="-1.5" x2="44.4185" y2="-1.5" transform="matrix(-0.517803 0.8555 0.943976 0.330014 144 1)" stroke="black" stroke-width="3"/>
<line y1="-1.5" x2="44.4185" y2="-1.5" transform="matrix(-0.517803 0.8555 0.943976 0.330014 99 1)" stroke="black" stroke-width="3"/>
<line y1="-1.5" x2="44.4185" y2="-1.5" transform="matrix(-0.517803 0.8555 0.943976 0.330014 55 1)" stroke="black" stroke-width="3"/>
<line y1="-1.5" x2="44.4185" y2="-1.5" transform="matrix(-0.517803 0.8555 0.943976 0.330014 128 1)" stroke="black" stroke-width="3"/>
<line y1="-1.5" x2="44.4185" y2="-1.5" transform="matrix(-0.517803 0.8555 0.943976 0.330014 84 1)" stroke="black" stroke-width="3"/>
<line y1="-1.5" x2="44.4185" y2="-1.5" transform="matrix(-0.517803 0.8555 0.943976 0.330014 40 1)" stroke="black" stroke-width="3"/>
<line y1="-1.5" x2="44.4185" y2="-1.5" transform="matrix(-0.517803 0.8555 0.943976 0.330014 114 1)" stroke="black" stroke-width="3"/>
<line y1="-1.5" x2="44.4185" y2="-1.5" transform="matrix(-0.517803 0.8555 0.943976 0.330014 70 1)" stroke="black" stroke-width="3"/>
<line y1="-1.5" x2="44.4185" y2="-1.5" transform="matrix(-0.517803 0.8555 0.943976 0.330014 26 1)" stroke="black" stroke-width="3"/>
</svg>
